<svg id="Layer_1" data-name="Layer 1" xmlns="http://www.w3.org/2000/svg" viewBox="0 0 163 70" width="163" height="70"><defs><style>.cls-1{fill:#c13c2d;}.cls-2{font-size:4.25px;font-family:Vonique92, "Vonique 92";}.cls-10,.cls-2,.cls-9{fill:#371411;}.cls-3{letter-spacing:-0.12em;}.cls-4{letter-spacing:-0.05em;}.cls-5{letter-spacing:-0.18em;}.cls-6{letter-spacing:0em;}.cls-7{letter-spacing:0em;}.cls-8{letter-spacing:-0.05em;}.cls-9{font-size:6.21px;font-family:Montserrat-ExtraBold, Montserrat;font-weight:800;letter-spacing:0.1em;}.cls-11{fill:#fff;}.cls-12{fill:#6d3c3a;}.cls-13{fill:#dc6a27;}</style></defs><path class="cls-1" d="M90.47,45.91l.37-1.72a1.59,1.59,0,0,1-.45.12l.06-.25a1.08,1.08,0,0,0,.55-.25h.21l-.44,2.1Z"/><path class="cls-1" d="M93,44.46C93,45,92.74,46,92,46c-.39,0-.58-.27-.58-.7s.24-1.47,1-1.47C92.8,43.78,93,44.09,93,44.46Zm-1.22.79c0,.27.09.45.31.45.45,0,.61-.85.61-1.24s-.08-.43-.31-.43C91.92,44,91.74,44.82,91.74,45.25Z"/><path class="cls-1" d="M94.74,44.46c0,.56-.23,1.49-.95,1.49-.38,0-.58-.27-.58-.7s.25-1.47,1-1.47C94.58,43.78,94.74,44.09,94.74,44.46Zm-1.22.79c0,.27.09.45.31.45.44,0,.61-.85.61-1.24s-.08-.43-.31-.43C93.7,44,93.52,44.82,93.52,45.25Z"/><path class="cls-1" d="M96,45.26a.44.44,0,0,0,.5.44c.29,0,.47-.13.47-.39s-.1-.31-.45-.44-.57-.31-.57-.58.24-.62.75-.62.72.28.72.62h-.31a.37.37,0,0,0-.43-.37c-.27,0-.41.15-.41.34s.07.24.4.36.62.36.62.65-.21.68-.82.68a.69.69,0,0,1-.79-.69Z"/><path class="cls-1" d="M97.71,44.29H98l.1-.46h.3l-.1.46h.34l-.06.24h-.33l-.2.95c0,.14,0,.21.11.21h.16l-.05.22a.66.66,0,0,1-.24,0c-.27,0-.35-.13-.29-.41l.21-1h-.26Z"/><path class="cls-1" d="M100.09,44.93a.94.94,0,0,1-.88,1,.58.58,0,0,1-.61-.66,1,1,0,0,1,.86-1A.6.6,0,0,1,100.09,44.93Zm-1.19.36c0,.26.12.41.35.41s.53-.45.53-.78-.11-.42-.34-.42S98.9,45,98.9,45.29Z"/><path class="cls-1" d="M100.51,44.77c0-.16.07-.33.1-.48h.28a2.2,2.2,0,0,1,0,.33.62.62,0,0,1,.56-.36l-.06.3a.69.69,0,0,0-.62.6l-.15.75h-.3Z"/><path class="cls-1" d="M101.72,44.29h.3l-.35,1.62h-.29Zm.15-.72h.3l-.08.36h-.29Z"/><path class="cls-1" d="M102.5,45.15a.76.76,0,0,0,0,.15c0,.25.12.4.34.4a.41.41,0,0,0,.39-.25h.31a.73.73,0,0,1-.73.5.57.57,0,0,1-.61-.65.94.94,0,0,1,.85-1,.54.54,0,0,1,.6.59,1,1,0,0,1,0,.3Zm.84-.22a.34.34,0,0,0,0-.1c0-.21-.09-.34-.32-.34s-.4.17-.48.44Z"/><path class="cls-1" d="M104.09,45.42a.31.31,0,0,0,.36.29c.21,0,.31-.1.31-.25s-.1-.21-.33-.29-.46-.24-.46-.43.2-.48.6-.48.59.23.59.47h-.31c0-.11-.06-.24-.3-.24s-.28.07-.28.21.09.16.31.24.49.26.49.49-.27.52-.66.52-.63-.22-.62-.53Z"/><path class="cls-1" d="M106.05,45.92l.1-.49h.32l-.1.49Z"/><path class="cls-1" d="M109.65,44.58A1.23,1.23,0,0,1,108.47,46a.82.82,0,0,1-.85-.9,1.27,1.27,0,0,1,1.18-1.38A.81.81,0,0,1,109.65,44.58ZM108,45c0,.37.17.65.56.65.56,0,.82-.59.82-1.11s-.18-.66-.55-.66C108.22,43.92,108,44.53,108,45Z"/><path class="cls-1" d="M110.06,44.7c0-.14.06-.27.08-.41h.29a2,2,0,0,1,0,.26.59.59,0,0,1,.53-.29c.31,0,.51.18.41.64l-.22,1h-.29l.21-1c0-.23,0-.39-.24-.39s-.44.25-.51.58l-.18.81h-.29Z"/><path class="cls-1" d="M111.94,45.15c0,.06,0,.09,0,.15,0,.25.12.4.34.4a.42.42,0,0,0,.4-.25h.3a.73.73,0,0,1-.73.5.58.58,0,0,1-.61-.65.94.94,0,0,1,.86-1,.54.54,0,0,1,.59.59,1,1,0,0,1,0,.3Zm.84-.22a.34.34,0,0,0,0-.1c0-.21-.09-.34-.32-.34s-.4.17-.48.44Z"/><path class="cls-1" d="M114.08,45.91l.47-2.21h.4c.18.51.59,1.61.65,1.86h0c0-.27.12-.66.2-1l.18-.84h.29l-.47,2.21h-.38c-.17-.47-.6-1.67-.66-1.91h0c0,.29-.12.65-.2,1l-.18.86Z"/><path class="cls-1" d="M117.62,45.51c0,.14-.07.34-.08.4h-.29s0-.15,0-.23a.57.57,0,0,1-.54.27.41.41,0,0,1-.45-.41c0-.47.43-.57.76-.6a3,3,0,0,1,.39,0l0-.1c0-.15,0-.34-.28-.34a.35.35,0,0,0-.37.25h-.3c0-.24.23-.47.7-.47s.63.17.54.56Zm-.22-.38-.32,0c-.26,0-.47.1-.47.34s.08.21.25.21c.35,0,.47-.27.54-.54Z"/><path class="cls-1" d="M118.12,44.29h.26l.1-.46h.3l-.1.46H119l-.06.24h-.34l-.2.95c0,.14,0,.21.12.21h.16l0,.22a.69.69,0,0,1-.24,0c-.27,0-.35-.13-.29-.41l.21-1h-.27Z"/><path class="cls-1" d="M119.33,44.29h.29l-.34,1.62H119Zm.15-.72h.29l-.07.36h-.3Z"/><path class="cls-1" d="M121.29,44.93a.94.94,0,0,1-.87,1,.58.58,0,0,1-.62-.66,1,1,0,0,1,.86-1A.6.6,0,0,1,121.29,44.93Zm-1.19.36c0,.26.13.41.35.41s.54-.45.54-.78-.12-.42-.35-.42S120.1,45,120.1,45.29Z"/><path class="cls-1" d="M121.73,44.7c0-.14.06-.27.08-.41h.29a2,2,0,0,1,0,.26.61.61,0,0,1,.54-.29c.31,0,.5.18.4.64l-.21,1h-.3l.22-1c0-.23,0-.39-.24-.39s-.45.25-.52.58l-.17.81h-.3Z"/><path class="cls-1" d="M123.18,45.92l.1-.49h.32l-.1.49Z"/><path class="cls-1" d="M126.21,44.88h-1l-.16.77h1.17l-.1.26h-1.44l.47-2.21h1.39l-.06.26h-1.07l-.15.66h1Z"/><path class="cls-1" d="M126.72,44.7c0-.14.06-.27.08-.41h.29a2,2,0,0,1,0,.26.58.58,0,0,1,.53-.29c.31,0,.5.18.4.64l-.21,1h-.29l.21-1c0-.23,0-.39-.24-.39s-.45.25-.52.58l-.17.81h-.3Z"/><path class="cls-1" d="M130.08,43.57l-.4,1.89q0,.24-.09.45h-.29s0-.14,0-.24a.56.56,0,0,1-.52.28c-.35,0-.53-.26-.53-.64s.29-1.05.85-1.05a.46.46,0,0,1,.45.23l.19-.92Zm-1.48,1.71c0,.28.12.41.33.41s.49-.29.56-.64,0-.53-.33-.53S128.6,44.94,128.6,45.28Z"/><path class="cls-1" d="M130.06,45.91l.5-2.34h.29l-.49,2.34Z"/><path class="cls-1" d="M131.19,45.15a.77.77,0,0,0,0,.15c0,.25.12.4.34.4a.41.41,0,0,0,.4-.25h.31a.74.74,0,0,1-.74.5.58.58,0,0,1-.61-.65.94.94,0,0,1,.86-1,.54.54,0,0,1,.59.59,1,1,0,0,1,0,.3Zm.84-.22a.34.34,0,0,0,0-.1c0-.21-.1-.34-.32-.34a.53.53,0,0,0-.49.44Z"/><path class="cls-1" d="M132.77,45.42a.31.31,0,0,0,.36.29c.21,0,.32-.1.32-.25s-.1-.21-.33-.29-.46-.24-.46-.43.2-.48.6-.48.59.23.58.47h-.3c0-.11-.06-.24-.31-.24s-.28.07-.28.21.1.16.32.24.49.26.49.49-.28.52-.67.52-.62-.22-.62-.53Z"/><path class="cls-1" d="M134.28,45.42a.31.31,0,0,0,.36.29c.21,0,.32-.1.32-.25s-.11-.21-.33-.29-.47-.24-.47-.43.21-.48.6-.48.6.23.59.47h-.3c0-.11-.06-.24-.31-.24s-.28.07-.28.21.1.16.32.24.49.26.49.49-.28.52-.67.52-.62-.22-.62-.53Z"/><path class="cls-1" d="M137.13,43.7l-.47,2.21h-.31l.47-2.21Z"/><path class="cls-1" d="M137.4,44.7c0-.14.06-.27.08-.41h.29a2,2,0,0,1,0,.26.59.59,0,0,1,.53-.29c.31,0,.51.18.41.64l-.22,1h-.29l.21-1c0-.23,0-.39-.24-.39s-.44.25-.51.58l-.18.81h-.29Z"/><path class="cls-1" d="M139.17,45.42a.31.31,0,0,0,.36.29c.21,0,.31-.1.31-.25s-.1-.21-.32-.29-.47-.24-.47-.43.2-.48.6-.48.59.23.59.47h-.3c0-.11-.07-.24-.31-.24s-.28.07-.28.21.09.16.32.24.48.26.48.49-.27.52-.66.52-.63-.22-.62-.53Z"/><path class="cls-1" d="M140.72,45.71l-.18.84h-.29l.38-1.78.09-.48H141a2.2,2.2,0,0,1,0,.27.61.61,0,0,1,.54-.3c.33,0,.52.24.52.62a1,1,0,0,1-.87,1.07A.45.45,0,0,1,140.72,45.71Zm1-.8c0-.27-.13-.4-.33-.4s-.49.29-.55.6,0,.58.32.58S141.72,45.25,141.72,44.91Z"/><path class="cls-1" d="M142.56,44.29h.3l-.35,1.62h-.3Zm.15-.72h.3l-.08.36h-.3Z"/><path class="cls-1" d="M143.22,44.77c0-.16.07-.33.1-.48h.28a2.67,2.67,0,0,1-.06.33.63.63,0,0,1,.57-.36l-.07.3a.69.69,0,0,0-.61.6l-.16.75H143Z"/><path class="cls-1" d="M145.35,45.51c0,.14-.07.34-.08.4H145s0-.15,0-.23a.57.57,0,0,1-.54.27.41.41,0,0,1-.45-.41c0-.47.43-.57.76-.6a3,3,0,0,1,.39,0l0-.1c0-.15,0-.34-.28-.34a.36.36,0,0,0-.37.25h-.3a.63.63,0,0,1,.7-.47c.38,0,.63.17.54.56Zm-.21-.38-.33,0c-.26,0-.46.1-.46.34s.07.21.24.21c.35,0,.47-.27.54-.54Z"/><path class="cls-1" d="M145.85,44.29h.26l.1-.46h.3l-.1.46h.34l-.06.24h-.33l-.2.95c0,.14,0,.21.11.21h.16l-.05.22a.66.66,0,0,1-.24,0c-.27,0-.35-.13-.29-.41l.21-1h-.26Z"/><path class="cls-1" d="M147.06,44.29h.29L147,45.91h-.3Zm.15-.72h.29l-.07.36h-.3Z"/><path class="cls-1" d="M149,44.93a.93.93,0,0,1-.87,1,.59.59,0,0,1-.62-.66,1,1,0,0,1,.87-1A.59.59,0,0,1,149,44.93Zm-1.18.36c0,.26.12.41.34.41.38,0,.54-.45.54-.78s-.12-.42-.35-.42S147.84,45,147.84,45.29Z"/><path class="cls-1" d="M149.46,44.7c0-.14.06-.27.08-.41h.29a2,2,0,0,1,0,.26.58.58,0,0,1,.53-.29c.31,0,.5.18.4.64l-.21,1h-.29l.21-1c0-.23,0-.39-.24-.39s-.45.25-.52.58l-.17.81h-.3Z"/><path class="cls-1" d="M150.91,45.92l.1-.49h.32l-.1.49Z"/><text class="cls-2" transform="translate(89.89 30.53)">INDEPENDENT KEN<tspan class="cls-3" x="37.71" y="0">Y</tspan><tspan x="39.92" y="0">A </tspan><tspan class="cls-4" x="44.09" y="0">W</tspan><tspan x="47.96" y="0">OMAN</tspan><tspan class="cls-5"><tspan x="0" y="5.1">AW</tspan><tspan class="cls-6" x="5.88" y="5.1">AR</tspan><tspan class="cls-7" x="11.73" y="5.1">D</tspan><tspan class="cls-6" x="14.69" y="5.1">S </tspan><tspan class="cls-8" x="17.93" y="5.1">T</tspan><tspan class="cls-6" x="20.17" y="5.1" xml:space="preserve">OP  A HUNDRED</tspan></tspan></text><text class="cls-9" transform="translate(89.89 42)">IN BUSINESS</text><path class="cls-10" d="M18.36,27.76l0-.51a16.88,16.88,0,0,0-.27-1.79L11.5,33.61h9.67a3.63,3.63,0,0,1,0-.57v-.17s0-.09,0-.13a4.93,4.93,0,0,1,0-.55c0-.11,0-.21,0-.31v0A4.9,4.9,0,0,1,18.36,27.76Z"/><path class="cls-10" d="M61.77,13.06A20.51,20.51,0,0,0,50,16.73a19.17,19.17,0,1,0,1.29,34.58A20.55,20.55,0,1,0,61.77,13.06ZM68.2,39.73a8.26,8.26,0,0,1-6.06,2.52,9.57,9.57,0,0,1-1.72-.15c-.34-.07-.67-.15-1-.25.07-.17.14-.34.2-.5a20.81,20.81,0,0,0,1.17-7,20.27,20.27,0,0,0-1.17-7c-.21-.6-.46-1.19-.73-1.77a8.27,8.27,0,0,1,.84-.28A9,9,0,0,1,62.14,25a8.27,8.27,0,0,1,6.06,2.53,8.47,8.47,0,0,1,0,12.19Z"/><path class="cls-10" d="M27.41,43.38l.29-.23.07-.06.12-.08L28,42.9c.46-.33.95-.66,1.5-1l.21-.12h0l.27-.16a6.45,6.45,0,0,0,1.21-1.55.65.65,0,0,0,.09-.16,4.93,4.93,0,0,1-.67-.24,4.37,4.37,0,0,1-1.44-1.08,4.52,4.52,0,0,1-.95-1.78c0,.06-.09.11-.13.16a1.8,1.8,0,0,1-1.27.53,1.76,1.76,0,0,1-.77-.17,5.79,5.79,0,0,0-1.29-.46h0l-.06,0A6.39,6.39,0,0,1,23,36.2V48.44c0,.21.09.43.15.64a18.5,18.5,0,0,0,2.68,6A18.8,18.8,0,0,0,31,60.22l.17.11V54.14a45.15,45.15,0,0,1-3.38-6.52c-.25-.56-.45-1.06-.61-1.47-.1-.24-.17-.44-.24-.6l-.06-.16A1.77,1.77,0,0,1,27.41,43.38Z"/><path class="cls-10" d="M26.08,15.45a8.54,8.54,0,0,1,1.15,0c.3,0,.62,0,.94.05s.61.07.91.12.69.12,1.09.21a8.05,8.05,0,0,0,1,.18V9.14Z"/><path class="cls-11" d="M31.76,16,31.15,16v.26l.65-.2Z"/><path class="cls-11" d="M47,35.57a1.87,1.87,0,0,0-.27-.24l0,0a2.06,2.06,0,0,0-.26-.15l0,0a.15.15,0,0,0,.06-.05A1.91,1.91,0,0,0,47,34.7l0-.06a.77.77,0,0,0,.12-.28.86.86,0,0,0-.27-.85l-.33-.31a2.13,2.13,0,0,1-.22-.21l-.3-.3-.14-.16a3,3,0,0,1-.67-1.88h0l0-.11a4.62,4.62,0,0,0,.11-.63,4.53,4.53,0,0,0,0-.52c0-.16,0-.33,0-.49a5.28,5.28,0,0,0-.13-.67,4.83,4.83,0,0,0-.48-1.15,4.33,4.33,0,0,0-1.1-1.26v0a2.87,2.87,0,0,0-.42-.25h0C40.45,26,38,29.1,36.3,32.1a10.46,10.46,0,0,1,.69.83,16.1,16.1,0,0,1,3,7.18,10.23,10.23,0,0,1,0,1.75c0,.16-.18.32-.28.47l-.11,0c0-.24-.07-.49-.08-.73a14.25,14.25,0,0,0-3.35-8.47,3,3,0,0,1-.27-.36,45.27,45.27,0,0,0-2.12,4.52h0a8.82,8.82,0,0,1-.67,3c-.11.24-.22.48-.35.71A8.49,8.49,0,0,1,31,43.15l-.43.24c.34,0,.4.24.5.46.52,1.08,1,2.18,1.52,3.25.2.43.41.85.63,1.27a23.17,23.17,0,0,0,4.55,6.34c.31.28.64.54,1,.8.11.09.26.17.32.29a1.62,1.62,0,0,1,.07.44c-.14,0-.32,0-.43,0a14,14,0,0,1-1.44-1.1,22.47,22.47,0,0,1-4.45-6.19c-.32-.6-.62-1.21-.91-1.83-.47-1-.92-2-1.37-3-.09-.19,0-.46,0-.7l-.18.1c-.49.3-1,.61-1.41.94l-.28.2-.29.23.29.76c.16.41.36.9.61,1.46,1.49,3.47,4.47,9.44,8,11.46A3.51,3.51,0,0,0,39,59h.17a.24.24,0,0,0,.24-.24,1.27,1.27,0,0,0,0-.2c0-.43,0-1.14,0-2,0-.27,0-.54,0-.81,0-.89.12-1.82.21-2.58a6.5,6.5,0,0,0-.07-2.69,5.26,5.26,0,0,0-.31-.95,5.49,5.49,0,0,0-.38-.77,4,4,0,0,1-.57-1.76,4.12,4.12,0,0,1,.35-2c.31-.7.62-1.36.93-2,.22-.43.44-.82.66-1.18.12-.2.23-.38.35-.55a2.57,2.57,0,0,1,.61-.62,2.11,2.11,0,0,1,.6-.3,2.34,2.34,0,0,1,1-.14h0a2.34,2.34,0,0,1,.45.07c.54.15,1,.25,1.29.3l.34.06a1.8,1.8,0,0,0,1.39-.45,1.18,1.18,0,0,0,.28-.47,1.12,1.12,0,0,0,0-.48l-.11-.91,0-.08A.94.94,0,0,0,47,38a1.71,1.71,0,0,0,.15-1A1.21,1.21,0,0,0,47,35.57Z"/><path class="cls-11" d="M39.18,60.86h-.27a5.64,5.64,0,0,1-2.47-.71c-3.82-2.18-6.89-7.9-8.8-12.32-.25-.58-.45-1.09-.62-1.51-.09-.24-.17-.45-.24-.62l-.06-.16a1.81,1.81,0,0,1,.56-2.06l.29-.24.08-.06.12-.08.15-.11a17.89,17.89,0,0,1,1.54-1l.21-.12h0l.28-.17a6.74,6.74,0,0,0,1.24-1.58c.11-.19.19-.37.27-.54A7,7,0,0,0,32,37.16a1.81,1.81,0,0,1,.12-.56,43.27,43.27,0,0,1,2.21-4.73,1.4,1.4,0,0,1,.22-.32,2.17,2.17,0,0,1,.15-.35c2.59-4.51,5.36-7,8.24-7.45A1.89,1.89,0,0,1,44,23.9a5.12,5.12,0,0,1,.68.41l.11.09a6.27,6.27,0,0,1,1.51,1.73A6.19,6.19,0,0,1,47,27.74a7,7,0,0,1,.18,1v0c0,.23,0,.46,0,.67a5.79,5.79,0,0,1,0,.72v0c0,.23-.07.47-.12.7a1.19,1.19,0,0,0,.25.56l0,0,0,0c.08.09.17.17.26.26l.17.17,0,0,.25.23,0,0a3,3,0,0,1,.44.5,2.67,2.67,0,0,1,.39,2.12,2.5,2.5,0,0,1-.07.26A3,3,0,0,1,49,37.31a3.27,3.27,0,0,1-.39,1.54l-.15.23v.05a3,3,0,0,1-.1,1.23,2.94,2.94,0,0,1-.73,1.24,3.58,3.58,0,0,1-2.75,1h0a3.1,3.1,0,0,1-.54-.08c-.4-.07-.9-.19-1.43-.33l-.1,0h0a.85.85,0,0,0-.23,0h0l-.13.07a.61.61,0,0,0-.16.16c-.1.14-.2.3-.3.47a12,12,0,0,0-.59,1.06c-.29.57-.59,1.2-.9,1.88A2.35,2.35,0,0,0,40.21,47a2.16,2.16,0,0,0,.3,1,5.88,5.88,0,0,1,.51,1,7.7,7.7,0,0,1,.4,1.23,8.56,8.56,0,0,1,.1,3.41c-.07.6-.14,1.39-.19,2.37,0,.28,0,.53,0,.79,0,.91,0,1.64,0,1.91v.23A2.05,2.05,0,0,1,39.18,60.86Zm-1.57-2ZM33,43.7l.39.84c.27.59.55,1.19.83,1.78s.41.84.6,1.2A24.13,24.13,0,0,0,38,52.33,4.76,4.76,0,0,0,37.9,51a4.51,4.51,0,0,0-.22-.68,3.06,3.06,0,0,0-.26-.51,5.81,5.81,0,0,1-.82-2.56,5.87,5.87,0,0,1,.5-2.9c.26-.59.52-1.15.78-1.67l0-.16,0-.16a6.83,6.83,0,0,1-.07-.71,12.13,12.13,0,0,0-1.54-5.38c-.24.52-.44,1-.6,1.4a10.66,10.66,0,0,1-.8,3.28c-.12.28-.27.58-.43.88A9.64,9.64,0,0,1,33,43.7Zm9.81-1.56Zm-.3,0Zm0,0h0Zm2.35-2.5h0Zm.33-.66Zm-2.14-.41a4.63,4.63,0,0,1,.73.12c.45.12.79.2,1,.24l0-.24A1.82,1.82,0,0,1,45.38,37a1.55,1.55,0,0,1,0-.37,1.8,1.8,0,0,1-.73-1.24A1.77,1.77,0,0,1,45,34.18l-.23-.24a3.33,3.33,0,0,1-.25-.28,4.79,4.79,0,0,1-1.07-3,2.05,2.05,0,0,1,.06-.49l0-.08a2.7,2.7,0,0,0,.08-.39c0-.11,0-.21,0-.31s0-.19,0-.29a2.29,2.29,0,0,0-.08-.41,2.71,2.71,0,0,0-.28-.68,3.29,3.29,0,0,0-.36-.49c-1.35.53-2.85,2.06-4.35,4.43a18.73,18.73,0,0,1,3.11,6.72,4,4,0,0,1,1.29-.13Zm2.32-1.23Zm0-.05h0v0Zm.4-.42Zm0,0h0ZM43.65,27.6h0Zm0,0Zm0,0Zm0,0Zm0,0Zm0,0Zm0,0Zm0,0h0Zm-.32,0a1.73,1.73,0,0,0,.32,0A1.73,1.73,0,0,1,43.31,27.57Zm0,0Zm-1-.57,0,0Zm0,0h0ZM45,24.61Zm0,0h0Z"/><path class="cls-11" d="M33.35,17.42h-.28l-.33,0-.2,0a.76.76,0,0,0-.21,0,2,2,0,0,0-.26.06l-.28.07-.27.08-.27.1-.25.11a6.76,6.76,0,0,0-1,.51l-.25.16-.43.3-.29.23-.33.27-.31.29-.09.08-.12.11-.18.18h0l0,0-.06,0-.08.06-.08.06-.16.12-.5.37c-.5.35-1.19.83-2,1.37l-.75.47A7.21,7.21,0,0,0,21.64,30c-1.62-.5-1.84-2.71-1.84-2.71l0-.51a18,18,0,0,0-.34-2.18c-.13-.6-.28-1.19-.46-1.78,0,0,0,0,0,0a1.87,1.87,0,0,1,1.23-2.33A5.22,5.22,0,0,0,23,18.27c.05-.07.09-.14.14-.2a4.72,4.72,0,0,1,4-1.48c.28,0,.56,0,.82,0s.56.06.82.11.72.13,1,.19a11.38,11.38,0,0,0,1.93.29A15.22,15.22,0,0,1,33.35,17.42Z"/><path class="cls-11" d="M21.64,31.79a1.68,1.68,0,0,1-.54-.08c-2.18-.68-3-3-3.1-4.27L18,26.92a14.13,14.13,0,0,0-.3-2c-.12-.55-.26-1.1-.42-1.62,0,0,0,0,0-.06h0a3.71,3.71,0,0,1,2.41-4.57,3.46,3.46,0,0,0,1.8-1.38,2.67,2.67,0,0,1,.25-.37c.78-1,2.37-2.23,5.43-2.17.3,0,.63,0,1,.05L29,15l1.11.22a9,9,0,0,0,1.63.24,16.54,16.54,0,0,1,1.93.23,1.81,1.81,0,0,1-.32,3.59H33.2l-.25,0h-.07l-.14,0-.07,0-.13,0-.09,0-.16,0h0l-.13,0h0L32,19.5l-.1,0-.05,0-.13.05A6.48,6.48,0,0,0,31,20l0,0-.12.07-.05,0-.33.23-.06.05-.16.12-.3.25-.26.23-.05,0s0,0-.06.06l0,0-.08.08-.13.13-.13.12-.06.05L29,21.6l-.05,0h0l0,0-.07,0h0a1.83,1.83,0,0,1-.22.16l0,0-.46.34c-.49.34-1.22.85-2.11,1.42l-.75.47a5.47,5.47,0,0,0-1.84,5.54,1.79,1.79,0,0,1-.59,1.67A1.77,1.77,0,0,1,21.64,31.79Zm-.94-9.47c.12.4.23.79.33,1.2a8.37,8.37,0,0,1,2.26-2.43l0,0,.72-.45c.84-.54,1.52-1,2-1.33l.4-.3.07,0,.07-.05,0,0h0l.11-.09h0l.09-.07.09-.09.16-.15,0,0,0,0H27a3.16,3.16,0,0,0-2.51.77.1.1,0,0,1,0,0,7.09,7.09,0,0,1-3.76,2.93.07.07,0,0,0-.05.08A.29.29,0,0,1,20.7,22.32Zm-3.44,1.11h0Zm-.08-.28Zm11.7-1.5-.07,0,.07,0Zm0,0h0Zm.15-.11h0l.07-.05Zm.22-.18Zm0,0Zm3.46-2.08h0Zm-8.2-.11Z"/><path class="cls-11" d="M35.94,27.92c-.17.3-.34.62-.5.95C35.6,28.54,35.77,28.22,35.94,27.92Z"/><path class="cls-11" d="M35.44,30.68a1.89,1.89,0,0,1-.79-.18,1.83,1.83,0,0,1-.84-2.42c.17-.36.37-.72.57-1.07a1.81,1.81,0,0,1,3.14,1.8c-.16.28-.31.57-.45.85A1.83,1.83,0,0,1,35.44,30.68Z"/><path class="cls-11" d="M41.1,23.57a2.21,2.21,0,0,0-.37,0l-.1,0-.12,0,0,0-.09,0-.07,0a8.06,8.06,0,0,0-1.82,1.11l-.32.27-.26.24-.07.07-.29.29c-.08.09-.16.17-.23.26a6,6,0,0,0-.38.47,3.4,3.4,0,0,0-.23.3c-.08.11-.16.21-.23.32l-.3.46-.23.38c-.17.3-.34.62-.5.95l-.15.33c-.14.29-.27.6-.39.91l-.18.48c-.06.15-.11.3-.16.45s-.13.4-.19.61-.09.28-.13.42-.1.34-.14.51-.09.35-.14.52l-.12.53-.12.54c-.18.9-.33,1.84-.45,2.79,0,.21-.06.43-.08.64a1.33,1.33,0,0,1-1.81.42,2.64,2.64,0,0,1-.88-.67,2.76,2.76,0,0,1-.68-1.85c0-6.35,3-11,9.1-13.87a1.32,1.32,0,0,1,.75-.13,1.35,1.35,0,0,1,1.12.85A6.07,6.07,0,0,1,41.1,23.57Z"/><path class="cls-11" d="M32.14,40a3.61,3.61,0,0,1-1.52-.35,4.72,4.72,0,0,1-1.48-1.11,4.64,4.64,0,0,1-1.13-3C28,28.37,31.44,23.15,38.15,20a3.22,3.22,0,0,1,1.71-.29,3.15,3.15,0,0,1,2.61,2,7.18,7.18,0,0,1,.42,1.6,1.82,1.82,0,0,1-.4,1.44,1.79,1.79,0,0,1-1.34.65h0l-.07,0h0a6.19,6.19,0,0,0-1.41.86l-.24.2,0,0c-.07,0-.12.11-.18.16l0,0-.05.05-.22.22-.17.19,0,0-.3.37,0,0a2,2,0,0,0-.17.23L38,28.1l-.25.4c-.07.1-.13.21-.2.33-.15.27-.3.55-.44.83,0,.05,0,.11-.08.16l-.05.13c-.14.29-.25.56-.35.82s-.12.29-.17.44l-.15.42c-.06.17-.11.35-.17.54v0a1.55,1.55,0,0,0-.07.23l-.05.15c0,.14-.08.3-.12.45s-.09.33-.13.49l-.12.5c0,.16-.07.33-.1.5-.18.84-.32,1.73-.44,2.65v0c0,.18-.05.37-.07.55v0a1.77,1.77,0,0,1-.32.86A3.07,3.07,0,0,1,32.14,40ZM34,27.66a12.85,12.85,0,0,0-2.39,7.85v.07c.1-.61.2-1.2.32-1.78l.12-.56c0-.19.09-.37.13-.56l.15-.56.15-.56,0-.14c0-.11.07-.21.1-.32s.13-.43.21-.65S33,30.12,33,30s.13-.34.2-.52.26-.64.42-1v0l.05-.12.11-.23Zm6.88-2.22h0Zm.11,0Zm.05,0h0Zm0,0Zm-.35-1.76.35,1.76h0l-.37-1.75Zm.39,1.74Zm0,0Zm.19-.05Z"/><path class="cls-11" d="M39.63,21.05a12.23,12.23,0,0,0-10.93,6,13.93,13.93,0,0,0-.82,1.64,15.84,15.84,0,0,0-.82,2.52,21.63,21.63,0,0,0-.49,3.1c0,.11,0,.22,0,.33a1.71,1.71,0,0,0,.19,1A8.25,8.25,0,0,0,25,35H25a4.92,4.92,0,0,1-1.56-.64,1.67,1.67,0,0,1-.74-1.45c0-.11,0-.21,0-.31l0-.5,0-.28c0-.29.05-.57.09-.85a2.36,2.36,0,0,1,0-.28c0-.28.08-.56.13-.83,0-.11.05-.22.07-.33s0-.06,0-.09.05-.2.07-.3.09-.37.14-.55.06-.22.1-.33.1-.32.15-.47l.06-.18c0-.12.09-.25.14-.37l.18-.46c.07-.14.13-.29.2-.43.14-.29.28-.57.43-.84s.31-.52.48-.77h0a3.88,3.88,0,0,1,.23-.33,2.69,2.69,0,0,1,.2-.27c.28-.36.57-.69.87-1l.18-.17a.86.86,0,0,1,.14-.13l.21-.19a1.62,1.62,0,0,1,.2-.18l.41-.33c.13-.1.26-.2.4-.29h0l.2-.13.2-.13.2-.13.21-.12.72-.38.29-.13.12-.05.34-.14.38-.15.4-.13.37-.12c.26-.07.53-.14.8-.19l.37-.08.44-.07.42-.06.41,0,.34,0a15.4,15.4,0,0,1,4.65.42h0A1.19,1.19,0,0,1,39.63,21.05Z"/><path class="cls-11" d="M26.73,37.44a1.81,1.81,0,0,1-.78-.18,6.15,6.15,0,0,0-1.33-.47h-.08a6.74,6.74,0,0,1-2.13-.88,3.52,3.52,0,0,1-1.56-3s0-.11,0-.18v-.12c0-.2,0-.39,0-.57s0-.21,0-.32c0-.27.06-.55.1-.9,0-.12,0-.23.05-.34,0-.3.09-.6.15-.88s0-.25.07-.37v-.12c0-.11.05-.21.08-.31v0c.05-.19.1-.4.16-.61a3.68,3.68,0,0,1,.11-.37,4.74,4.74,0,0,1,.17-.53A1.72,1.72,0,0,1,21.9,27c.05-.14.1-.28.16-.42l.2-.5c.07-.16.14-.33.23-.5.16-.34.32-.65.49-.95s.32-.55.54-.88l0,0a3.53,3.53,0,0,1,.25-.35L24,23c.32-.4.65-.78,1-1.14l.21-.21.19-.18.2-.19.26-.22,0,0,.46-.37.45-.33.1-.06.06-.05.12-.08,0,0,.17-.11.17-.11.05,0,.22-.12,0,0c.27-.15.53-.29.83-.43l.17-.08.12-.06.09,0h0l.1-.05.07,0L29.5,19l.44-.17.47-.16.4-.12c.31-.09.62-.17.94-.23h.05l.36-.08.5-.08.47-.06.49-.05L34,18a17.28,17.28,0,0,1,5.11.45l.09,0a3,3,0,0,1,2.18,2.16,1.82,1.82,0,0,1-.32,1.56,1.79,1.79,0,0,1-1.42.71A10.41,10.41,0,0,0,30.27,28a10.06,10.06,0,0,0-.72,1.43,15.06,15.06,0,0,0-.73,2.24,18.63,18.63,0,0,0-.44,2.83c0,.11,0,.2,0,.29a1.82,1.82,0,0,1-1.62,2.65Zm-2.26-4.53a1.83,1.83,0,0,0,.42.2,22.71,22.71,0,0,1,.41-2.29,18,18,0,0,1,.92-2.8,14.49,14.49,0,0,1,.92-1.85,14,14,0,0,1,2.91-3.51l-.45.24-.06,0-.09,0-.09.05-.07.05-.07,0-.06,0-.16.1-.11.08h0l-.3.22-.34.28-.16.14c-.06.06-.12.1-.17.16a.18.18,0,0,1-.07.05l0,.05,0,0a.47.47,0,0,0-.1.1l0,0a8.24,8.24,0,0,0-.72.83l-.17.22-.18.26h0a.1.1,0,0,1,0,.05l-.38.63c-.13.23-.25.47-.38.73l-.16.36h0c0,.13-.1.27-.16.4s-.07.19-.1.29l-.05.11v.05a3.84,3.84,0,0,0-.13.41.19.19,0,0,0,0,.07,1.87,1.87,0,0,0-.07.22v0l-.12.47-.06.26,0,.07v0a2.38,2.38,0,0,0,0,.26v0c-.05.23-.09.48-.12.73,0,0,0,0,0,.07a.77.77,0,0,0,0,.15v0c0,.3-.06.54-.08.76v0a1.79,1.79,0,0,0,0,.23v0l0,.42a1,1,0,0,1,0,.17Zm-.08,0Z"/><path class="cls-10" d="M47,35.57a1.87,1.87,0,0,0-.27-.24l0,0a2.06,2.06,0,0,0-.26-.15l0,0a.15.15,0,0,0,.06-.05A1.91,1.91,0,0,0,47,34.7l0-.06a.77.77,0,0,0,.12-.28.86.86,0,0,0-.27-.85l-.33-.31a2.13,2.13,0,0,1-.22-.21l-.3-.3-.14-.16a3,3,0,0,1-.67-1.88h0l0-.11a4.62,4.62,0,0,0,.11-.63,4.53,4.53,0,0,0,0-.52c0-.16,0-.33,0-.49a5.28,5.28,0,0,0-.13-.67,4.83,4.83,0,0,0-.48-1.15,4.33,4.33,0,0,0-1.1-1.26v0a2.87,2.87,0,0,0-.42-.25h0C40.45,26,38,29.1,36.3,32.1a10.46,10.46,0,0,1,.69.83,16.1,16.1,0,0,1,3,7.18,10.23,10.23,0,0,1,0,1.75c0,.16-.18.32-.28.47l-.11,0c0-.24-.07-.49-.08-.73a14.25,14.25,0,0,0-3.35-8.47,3,3,0,0,1-.27-.36,45.27,45.27,0,0,0-2.12,4.52h0a8.82,8.82,0,0,1-.67,3c-.11.24-.22.48-.35.71A8.49,8.49,0,0,1,31,43.15l-.43.24c.34,0,.4.24.5.46.52,1.08,1,2.18,1.52,3.25.2.43.41.85.63,1.27a23.17,23.17,0,0,0,4.55,6.34c.31.28.64.54,1,.8.11.09.26.17.32.29a1.62,1.62,0,0,1,.07.44c-.14,0-.32,0-.43,0a14,14,0,0,1-1.44-1.1,22.47,22.47,0,0,1-4.45-6.19c-.32-.6-.62-1.21-.91-1.83-.47-1-.92-2-1.37-3-.09-.19,0-.46,0-.7l-.18.1c-.49.3-1,.61-1.41.94l-.28.2-.29.23.29.76c.16.41.36.9.61,1.46,1.49,3.47,4.47,9.44,8,11.46A3.51,3.51,0,0,0,39,59h.17a.24.24,0,0,0,.24-.24,1.27,1.27,0,0,0,0-.2c0-.43,0-1.14,0-2,0-.27,0-.54,0-.81,0-.89.12-1.82.21-2.58a6.5,6.5,0,0,0-.07-2.69,5.26,5.26,0,0,0-.31-.95,5.49,5.49,0,0,0-.38-.77,4,4,0,0,1-.57-1.76,4.12,4.12,0,0,1,.35-2c.31-.7.62-1.36.93-2,.22-.43.44-.82.66-1.18.12-.2.23-.38.35-.55a2.57,2.57,0,0,1,.61-.62,2.11,2.11,0,0,1,.6-.3,2.34,2.34,0,0,1,1-.14h0a2.34,2.34,0,0,1,.45.07c.54.15,1,.25,1.29.3l.34.06a1.8,1.8,0,0,0,1.39-.45,1.18,1.18,0,0,0,.28-.47,1.12,1.12,0,0,0,0-.48l-.11-.91,0-.08A.94.94,0,0,0,47,38a1.71,1.71,0,0,0,.15-1A1.21,1.21,0,0,0,47,35.57Z"/><path class="cls-1" d="M33.35,17.42h-.28l-.33,0-.2,0a.76.76,0,0,0-.21,0,2,2,0,0,0-.26.06l-.28.07-.27.08-.27.1-.25.11a6.76,6.76,0,0,0-1,.51l-.25.16-.43.3-.29.23-.33.27-.31.29-.09.08-.12.11-.18.18h0l0,0-.06,0-.08.06-.08.06-.16.12-.5.37c-.5.35-1.19.83-2,1.37l-.75.47A7.21,7.21,0,0,0,21.64,30c-1.62-.5-1.84-2.71-1.84-2.71l0-.51a18,18,0,0,0-.34-2.18c-.13-.6-.28-1.19-.46-1.78,0,0,0,0,0,0a1.87,1.87,0,0,1,1.23-2.33A5.22,5.22,0,0,0,23,18.27c.05-.07.09-.14.14-.2a4.72,4.72,0,0,1,4-1.48c.28,0,.56,0,.82,0s.56.06.82.11.72.13,1,.19a11.38,11.38,0,0,0,1.93.29A15.22,15.22,0,0,1,33.35,17.42Z"/><path class="cls-12" d="M35.94,27.92c-.17.3-.34.62-.5.95C35.6,28.54,35.77,28.22,35.94,27.92Z"/><path class="cls-12" d="M41.1,23.57a2.21,2.21,0,0,0-.37,0l-.1,0-.12,0,0,0-.09,0-.07,0a8.06,8.06,0,0,0-1.82,1.11l-.32.27-.26.24-.07.07-.29.29c-.08.09-.16.17-.23.26a6,6,0,0,0-.38.47,3.4,3.4,0,0,0-.23.3c-.08.11-.16.21-.23.32l-.3.46-.23.38c-.17.3-.34.62-.5.95l-.15.33c-.14.29-.27.6-.39.91l-.18.48c-.06.15-.11.3-.16.45s-.13.4-.19.61-.09.28-.13.42-.1.34-.14.51-.09.35-.14.52l-.12.53-.12.54c-.18.9-.33,1.84-.45,2.79,0,.21-.06.43-.08.64a1.33,1.33,0,0,1-1.81.42,2.64,2.64,0,0,1-.88-.67,2.76,2.76,0,0,1-.68-1.85c0-6.35,3-11,9.1-13.87a1.32,1.32,0,0,1,.75-.13,1.35,1.35,0,0,1,1.12.85A6.07,6.07,0,0,1,41.1,23.57Z"/><path class="cls-13" d="M39.63,21.05a12.23,12.23,0,0,0-10.93,6,13.93,13.93,0,0,0-.82,1.64,15.84,15.84,0,0,0-.82,2.52,21.63,21.63,0,0,0-.49,3.1c0,.11,0,.22,0,.33a1.71,1.71,0,0,0,.19,1A8.25,8.25,0,0,0,25,35H25a4.92,4.92,0,0,1-1.56-.64,1.67,1.67,0,0,1-.74-1.45c0-.11,0-.21,0-.31l0-.5,0-.28c0-.29.05-.57.09-.85a2.36,2.36,0,0,1,0-.28c0-.28.08-.56.13-.83,0-.11.05-.22.07-.33s0-.06,0-.09.05-.2.07-.3.09-.37.14-.55.06-.22.1-.33.1-.32.15-.47l.06-.18c0-.12.09-.25.14-.37l.18-.46c.07-.14.13-.29.2-.43.14-.29.28-.57.43-.84s.31-.52.48-.77h0a3.88,3.88,0,0,1,.23-.33,2.69,2.69,0,0,1,.2-.27c.28-.36.57-.69.87-1l.18-.17a.86.86,0,0,1,.14-.13l.21-.19a1.62,1.62,0,0,1,.2-.18l.41-.33c.13-.1.26-.2.4-.29h0l.2-.13.2-.13.2-.13.21-.12.72-.38.29-.13.12-.05.34-.14.38-.15.4-.13.37-.12c.26-.07.53-.14.8-.19l.37-.08.44-.07.42-.06.41,0,.34,0a15.4,15.4,0,0,1,4.65.42h0A1.19,1.19,0,0,1,39.63,21.05Z"/></svg>