<svg id="Layer_1" data-name="Layer 1" xmlns="http://www.w3.org/2000/svg" viewBox="0 0 163 70" width="163" height="70"><defs><style>.cls-1{fill:#c13c2d;}.cls-2{font-size:3.64px;font-family:Vonique92, "Vonique 92";}.cls-2,.cls-7,.cls-8{fill:#fff;}.cls-3{letter-spacing:-0.12em;}.cls-4{letter-spacing:-0.05em;}.cls-5{letter-spacing:-0.18em;}.cls-6{letter-spacing:0em;}.cls-7{font-size:5.33px;font-family:Montserrat-ExtraBold, Montserrat;font-weight:800;letter-spacing:0.1em;}.cls-9{fill:#371411;}.cls-10{fill:#6d3c3a;}.cls-11{fill:#dc6a27;}</style></defs><path class="cls-1" d="M89.19,44.35l.32-1.47a1.49,1.49,0,0,1-.39.1l0-.21a1,1,0,0,0,.47-.21h.19l-.38,1.79Z"/><path class="cls-1" d="M91.33,43.11c0,.48-.2,1.27-.81,1.27-.34,0-.5-.23-.5-.59s.21-1.26.81-1.26C91.19,42.53,91.33,42.79,91.33,43.11Zm-1,.67c0,.23.08.39.27.39.38,0,.52-.73.52-1.06s-.07-.37-.27-.37C90.43,42.74,90.28,43.41,90.28,43.78Z"/><path class="cls-1" d="M92.85,43.11c0,.48-.19,1.27-.81,1.27-.33,0-.5-.23-.5-.59s.21-1.26.82-1.26C92.71,42.53,92.85,42.79,92.85,43.11Zm-1,.67c0,.23.07.39.26.39.38,0,.52-.73.52-1.06s-.07-.37-.26-.37C92,42.74,91.81,43.41,91.81,43.78Z"/><path class="cls-1" d="M94,43.8a.38.38,0,0,0,.44.37c.24,0,.4-.11.4-.33s-.09-.27-.39-.38-.48-.27-.48-.5.2-.53.63-.53.62.24.62.53h-.26c0-.18-.11-.31-.38-.31s-.34.12-.34.28.06.21.34.31.53.31.53.57-.18.57-.7.57-.67-.24-.68-.58Z"/><path class="cls-1" d="M95.4,43h.22l.09-.39H96l-.09.39h.29l0,.21h-.29l-.17.81c0,.12,0,.18.1.18h.13l0,.2a.75.75,0,0,1-.21,0c-.23,0-.29-.12-.24-.35l.18-.85h-.23Z"/><path class="cls-1" d="M97.43,43.52a.79.79,0,0,1-.74.86.5.5,0,0,1-.54-.56.82.82,0,0,1,.75-.88A.51.51,0,0,1,97.43,43.52Zm-1,.3c0,.22.1.35.29.35s.46-.39.46-.67-.09-.36-.29-.36S96.42,43.53,96.42,43.82Z"/><path class="cls-1" d="M97.8,43.37c0-.13.06-.28.08-.41h.24a1.73,1.73,0,0,1-.05.29.55.55,0,0,1,.49-.31l-.06.26a.57.57,0,0,0-.52.51l-.14.64h-.25Z"/><path class="cls-1" d="M98.83,43h.26l-.3,1.39h-.25Zm.13-.61h.26l-.07.31H98.9Z"/><path class="cls-1" d="M99.5,43.7s0,.08,0,.12c0,.22.1.35.29.35a.35.35,0,0,0,.34-.21h.27a.63.63,0,0,1-.63.42.49.49,0,0,1-.52-.56.8.8,0,0,1,.73-.88.46.46,0,0,1,.51.5.78.78,0,0,1,0,.26Zm.72-.18a.38.38,0,0,0,0-.1.25.25,0,0,0-.27-.28c-.21,0-.35.14-.42.38Z"/><path class="cls-1" d="M100.86,43.93a.27.27,0,0,0,.31.25c.18,0,.27-.09.27-.21s-.09-.18-.28-.25-.4-.21-.4-.37.17-.41.52-.41.5.2.5.4h-.26c0-.09,0-.21-.26-.21s-.24.07-.24.19.08.13.27.2.41.22.41.42-.23.44-.56.44-.54-.18-.53-.45Z"/><path class="cls-1" d="M102.54,44.35l.09-.41h.27l-.09.41Z"/><path class="cls-1" d="M105.63,43.21a1.06,1.06,0,0,1-1,1.17.69.69,0,0,1-.73-.76,1.09,1.09,0,0,1,1-1.19A.7.7,0,0,1,105.63,43.21Zm-1.46.4c0,.31.15.55.48.55s.71-.5.71-.95-.16-.56-.48-.56C104.4,42.65,104.17,43.17,104.17,43.61Z"/><path class="cls-1" d="M106,43.32c0-.12,0-.24.07-.36h.25a1.57,1.57,0,0,1,0,.23.52.52,0,0,1,.46-.25c.27,0,.43.15.35.55l-.19.86h-.25l.18-.86c0-.19,0-.33-.2-.33s-.38.21-.44.49l-.15.7h-.25Z"/><path class="cls-1" d="M107.6,43.7a.53.53,0,0,0,0,.12c0,.22.09.35.28.35a.37.37,0,0,0,.35-.21h.26a.63.63,0,0,1-.63.42.49.49,0,0,1-.52-.56.8.8,0,0,1,.73-.88.46.46,0,0,1,.51.5.78.78,0,0,1,0,.26Zm.72-.18v-.1a.25.25,0,0,0-.27-.28.43.43,0,0,0-.41.38Z"/><path class="cls-1" d="M109.43,44.35l.4-1.89h.34c.16.43.51,1.38.56,1.59h0c0-.23.1-.57.17-.87l.15-.72h.25l-.4,1.89h-.33c-.14-.4-.51-1.43-.56-1.63h0c0,.24-.1.56-.17.9l-.16.73Z"/><path class="cls-1" d="M112.46,44c0,.12-.06.29-.07.34h-.25s0-.13,0-.2a.48.48,0,0,1-.46.23.35.35,0,0,1-.39-.35c0-.39.37-.48.65-.51a2.26,2.26,0,0,1,.33,0l0-.09c0-.12,0-.28-.23-.28s-.29.11-.32.21h-.26c0-.21.2-.4.6-.4s.53.14.46.48Zm-.18-.33-.28,0c-.22,0-.4.09-.4.29s.07.18.21.18c.3,0,.41-.23.46-.46Z"/><path class="cls-1" d="M112.89,43h.22l.09-.39h.25l-.08.39h.29l0,.21h-.29l-.17.81c0,.12,0,.18.1.18h.14l0,.2a.71.71,0,0,1-.2,0c-.23,0-.3-.12-.25-.35l.18-.85h-.23Z"/><path class="cls-1" d="M113.92,43h.26l-.3,1.39h-.25Zm.13-.61h.26l-.07.31H114Z"/><path class="cls-1" d="M115.61,43.52a.8.8,0,0,1-.75.86.5.5,0,0,1-.53-.56.81.81,0,0,1,.74-.88A.52.52,0,0,1,115.61,43.52Zm-1,.3c0,.22.11.35.3.35s.46-.39.46-.67-.1-.36-.3-.36S114.59,43.53,114.59,43.82Z"/><path class="cls-1" d="M116,43.32c0-.12,0-.24.07-.36h.25a1.57,1.57,0,0,1,0,.23.52.52,0,0,1,.46-.25c.27,0,.43.15.34.55l-.18.86h-.25l.18-.86c0-.19,0-.33-.2-.33s-.38.21-.44.49l-.15.7h-.26Z"/><path class="cls-1" d="M117.23,44.35l.08-.41h.28l-.09.41Z"/><path class="cls-1" d="M119.83,43.47H119l-.14.66h1l-.08.22H118.5l.4-1.89h1.19l0,.22h-.92l-.12.56h.88Z"/><path class="cls-1" d="M120.26,43.32c0-.12,0-.24.07-.36h.25a1.57,1.57,0,0,1,0,.23.52.52,0,0,1,.46-.25c.27,0,.43.15.34.55l-.18.86h-.25l.18-.86c0-.19,0-.33-.2-.33s-.39.21-.45.49l-.14.7H120Z"/><path class="cls-1" d="M123.14,42.35,122.8,44c0,.13-.06.26-.08.38h-.24a1.14,1.14,0,0,1,0-.21.48.48,0,0,1-.45.24c-.3,0-.45-.22-.45-.54a.82.82,0,0,1,.73-.9.37.37,0,0,1,.38.2l.17-.79Zm-1.27,1.46c0,.24.11.35.28.35s.42-.25.48-.55,0-.45-.28-.45S121.87,43.52,121.87,43.81Z"/><path class="cls-1" d="M123.13,44.35l.42-2h.25l-.42,2Z"/><path class="cls-1" d="M124.09,43.7a.53.53,0,0,0,0,.12c0,.22.1.35.29.35a.36.36,0,0,0,.34-.21H125a.63.63,0,0,1-.63.42.49.49,0,0,1-.52-.56.8.8,0,0,1,.74-.88.45.45,0,0,1,.5.5,1.15,1.15,0,0,1,0,.26Zm.72-.18a.38.38,0,0,0,0-.1.25.25,0,0,0-.28-.28c-.2,0-.34.14-.41.38Z"/><path class="cls-1" d="M125.45,43.93a.27.27,0,0,0,.31.25c.18,0,.27-.09.27-.21s-.09-.18-.28-.25-.4-.21-.4-.37.17-.41.51-.41.51.2.51.4h-.26c0-.09,0-.21-.27-.21s-.23.07-.23.19.07.13.27.2.41.22.41.42-.23.44-.56.44-.54-.18-.54-.45Z"/><path class="cls-1" d="M126.74,43.93a.28.28,0,0,0,.31.25c.18,0,.27-.09.27-.21s-.09-.18-.28-.25-.4-.21-.4-.37.17-.41.52-.41.5.2.5.4h-.26c0-.09-.05-.21-.26-.21s-.24.07-.24.19.08.13.27.2.42.22.42.42-.24.44-.57.44-.54-.18-.53-.45Z"/><path class="cls-1" d="M129.18,42.46l-.4,1.89h-.26l.4-1.89Z"/><path class="cls-1" d="M129.42,43.32c0-.12.05-.24.07-.36h.25s0,.19,0,.23a.5.5,0,0,1,.46-.25c.26,0,.43.15.34.55l-.18.86h-.25l.18-.86c0-.19,0-.33-.21-.33s-.38.21-.44.49l-.15.7h-.25Z"/><path class="cls-1" d="M130.93,43.93a.27.27,0,0,0,.31.25c.18,0,.27-.09.27-.21s-.09-.18-.28-.25-.4-.21-.4-.37.17-.41.52-.41.5.2.5.4h-.26c0-.09-.05-.21-.27-.21s-.23.07-.23.19.08.13.27.2.41.22.41.42-.23.44-.56.44-.54-.18-.53-.45Z"/><path class="cls-1" d="M132.26,44.18l-.15.72h-.25l.32-1.53c0-.19.07-.32.08-.41h.25a1.59,1.59,0,0,1,0,.23.54.54,0,0,1,.47-.25c.28,0,.44.21.44.53a.82.82,0,0,1-.74.91A.4.4,0,0,1,132.26,44.18Zm.85-.69c0-.22-.1-.34-.27-.34s-.42.25-.48.52,0,.5.28.5S133.11,43.78,133.11,43.49Z"/><path class="cls-1" d="M133.84,43h.25l-.29,1.39h-.26Zm.13-.61h.25l-.06.31h-.26Z"/><path class="cls-1" d="M134.41,43.37c0-.13.05-.28.08-.41h.24a1.73,1.73,0,0,1,0,.29.54.54,0,0,1,.49-.31l-.06.26a.56.56,0,0,0-.52.51l-.14.64h-.25Z"/><path class="cls-1" d="M136.23,44c0,.12-.06.29-.07.34h-.25s0-.13,0-.2a.48.48,0,0,1-.46.23.35.35,0,0,1-.39-.35c0-.39.37-.48.65-.51a2.26,2.26,0,0,1,.33,0l0-.09c0-.12,0-.28-.24-.28a.27.27,0,0,0-.31.21h-.26c0-.21.2-.4.6-.4s.53.14.46.48Zm-.18-.33-.28,0c-.22,0-.4.09-.4.29s.07.18.21.18c.3,0,.4-.23.46-.46Z"/><path class="cls-1" d="M136.66,43h.22l.09-.39h.25l-.08.39h.29l-.05.21h-.29l-.17.81c0,.12,0,.18.1.18h.13l0,.2a.71.71,0,0,1-.2,0c-.23,0-.3-.12-.25-.35l.18-.85h-.23Z"/><path class="cls-1" d="M137.69,43H138l-.3,1.39h-.25Zm.13-.61h.26l-.07.31h-.25Z"/><path class="cls-1" d="M139.38,43.52a.8.8,0,0,1-.75.86.5.5,0,0,1-.53-.56.81.81,0,0,1,.74-.88A.52.52,0,0,1,139.38,43.52Zm-1,.3c0,.22.11.35.3.35s.45-.39.45-.67-.09-.36-.29-.36S138.36,43.53,138.36,43.82Z"/><path class="cls-1" d="M139.75,43.32c0-.12.05-.24.07-.36h.25a1.57,1.57,0,0,1,0,.23.52.52,0,0,1,.46-.25c.27,0,.43.15.35.55l-.19.86h-.25l.18-.86c0-.19,0-.33-.2-.33s-.38.21-.44.49l-.15.7h-.26Z"/><path class="cls-1" d="M141,44.35l.08-.41h.28l-.09.41Z"/><text class="cls-2" transform="translate(88.7 31.17)">INDEPENDENT KEN<tspan class="cls-3" x="32.32" y="0">Y</tspan><tspan x="34.22" y="0">A </tspan><tspan class="cls-4" x="37.79" y="0">W</tspan><tspan x="41.11" y="0">OMAN</tspan><tspan class="cls-5" x="0" y="4.37">AW</tspan><tspan x="5.04" y="4.37">AR</tspan><tspan class="cls-6" x="10.05" y="4.37">D</tspan><tspan x="12.59" y="4.37">S </tspan><tspan class="cls-4" x="15.37" y="4.37">T</tspan><tspan x="17.29" y="4.37" xml:space="preserve">OP  A HUNDRED</tspan></text><text class="cls-7" transform="translate(88.7 41)">IN BUSINESS</text><path class="cls-8" d="M27.39,28.79l0-.43a14.41,14.41,0,0,0-.24-1.54l-5.61,7h8.29a2.57,2.57,0,0,1,0-.48v-.15s0-.07,0-.11a3.59,3.59,0,0,1,0-.47,2.11,2.11,0,0,1,0-.26v0A4.18,4.18,0,0,1,27.39,28.79Z"/><path class="cls-8" d="M64.59,16.2a17.54,17.54,0,0,0-10.05,3.14A16.44,16.44,0,1,0,48,50.86,16.35,16.35,0,0,0,55.64,49a17.61,17.61,0,1,0,9-32.78ZM70.1,39.05a7,7,0,0,1-5.19,2.17,8.76,8.76,0,0,1-1.48-.13,8.15,8.15,0,0,1-.85-.22c.06-.14.11-.29.16-.43a18.35,18.35,0,0,0,0-12c-.19-.51-.4-1-.63-1.51.23-.09.48-.17.72-.24a7.72,7.72,0,0,1,2.07-.27,7,7,0,0,1,5.19,2.17,7.25,7.25,0,0,1,0,10.44Z"/><path class="cls-8" d="M35.14,42.18l.24-.2.07,0,.1-.07.12-.1c.4-.28.82-.56,1.29-.84l.17-.11h0l.23-.14a5.35,5.35,0,0,0,1-1.32,1.09,1.09,0,0,0,.08-.15,2.86,2.86,0,0,1-.58-.2,3.61,3.61,0,0,1-1.23-.93,3.88,3.88,0,0,1-.82-1.52.76.76,0,0,1-.11.14,1.51,1.51,0,0,1-1.09.45A1.41,1.41,0,0,1,34,37a5.28,5.28,0,0,0-1.1-.38h-.07A5.34,5.34,0,0,1,31.37,36V46.52c0,.18.07.36.12.55a16.13,16.13,0,0,0,6.71,9.55l.14.09V51.4a39.75,39.75,0,0,1-2.9-5.58c-.21-.48-.38-.91-.52-1.26s-.14-.38-.2-.52l0-.13A1.51,1.51,0,0,1,35.14,42.18Z"/><path class="cls-8" d="M34,18.24a7.78,7.78,0,0,1,1,0,7.44,7.44,0,0,1,.81,0l.78.1c.29,0,.59.11.93.19s.56.11.84.15V12.84Z"/><path class="cls-8" d="M38.87,18.74l-.53,0v.22l.56-.17Z"/><path class="cls-8" d="M52,35.49a1.46,1.46,0,0,0-.23-.21s0,0,0,0l-.22-.12,0,0a.1.1,0,0,0,0,0,2.26,2.26,0,0,0,.35-.32l0-.06a.66.66,0,0,0,.11-.24.71.71,0,0,0-.11-.58.47.47,0,0,0-.13-.15l-.28-.26-.18-.18L51.11,33,51,32.88a2.49,2.49,0,0,1-.58-1.61h0l0-.09a5.17,5.17,0,0,0,.11-.54c0-.15,0-.3,0-.45s0-.28,0-.41a3.71,3.71,0,0,0-.11-.58,3.91,3.91,0,0,0-.41-1,3.61,3.61,0,0,0-.94-1.08h0a2.18,2.18,0,0,0-.36-.22h0c-2.39.36-4.47,3.05-6,5.63a7.55,7.55,0,0,1,.59.7A13.72,13.72,0,0,1,46,39.38a7.52,7.52,0,0,1,0,1.5c0,.14-.15.27-.23.4l-.1,0c0-.21-.06-.42-.07-.63a12.17,12.17,0,0,0-2.87-7.26,2.36,2.36,0,0,1-.23-.31,34.58,34.58,0,0,0-1.81,3.88h0a7.61,7.61,0,0,1-.59,2.55,4.92,4.92,0,0,1-.3.61A7.18,7.18,0,0,1,38.25,42l-.37.21c.29,0,.34.21.43.4.44.92.86,1.86,1.3,2.78.18.37.36.73.55,1.09a19.56,19.56,0,0,0,3.89,5.43c.27.25.55.46.83.69a1.29,1.29,0,0,1,.27.25,1.51,1.51,0,0,1,.06.38c-.12,0-.28,0-.37,0a12.36,12.36,0,0,1-1.24-.95,19,19,0,0,1-3.81-5.3c-.27-.51-.53-1-.78-1.57-.4-.85-.78-1.71-1.17-2.56-.08-.16,0-.4,0-.6l-.15.09a12.82,12.82,0,0,0-1.22.8l-.23.17-.26.2c.07.16.15.38.26.65s.31.77.51,1.25c1.28,3,3.84,8.09,6.89,9.83a3.11,3.11,0,0,0,1.43.41h.15a.2.2,0,0,0,.2-.2.91.91,0,0,0,0-.17c0-.37,0-1,.05-1.67l0-.7c0-.76.1-1.56.18-2.21a5.55,5.55,0,0,0-.06-2.3,5.18,5.18,0,0,0-.26-.82,4.14,4.14,0,0,0-.34-.66,3.4,3.4,0,0,1-.48-1.51,3.44,3.44,0,0,1,.3-1.72c.26-.6.53-1.17.8-1.69s.37-.7.56-1c.1-.16.2-.32.3-.46A2.18,2.18,0,0,1,47,40a2,2,0,0,1,.51-.26,2.07,2.07,0,0,1,.82-.12h0a2.66,2.66,0,0,1,.39.07c.46.12.85.21,1.1.26l.3,0a1.5,1.5,0,0,0,1.19-.38,1,1,0,0,0,.24-.4,1,1,0,0,0,0-.42l-.1-.77V37.9a.78.78,0,0,0,.41-.36,1.43,1.43,0,0,0,.13-.81A1,1,0,0,0,52,35.49Z"/><path class="cls-8" d="M45.23,57.16H45a4.78,4.78,0,0,1-2.11-.62C39.6,54.68,37,49.77,35.34,46c-.21-.5-.39-.93-.53-1.29s-.16-.39-.21-.54L34.55,44A1.54,1.54,0,0,1,35,42.26l.25-.2.06-.05.1-.08.13-.09c.41-.3.84-.58,1.32-.87l.18-.11h0l.24-.14a5.67,5.67,0,0,0,1.07-1.36,3.81,3.81,0,0,0,.22-.46,6.09,6.09,0,0,0,.47-2,1.58,1.58,0,0,1,.1-.49,39,39,0,0,1,1.89-4,1.85,1.85,0,0,1,.19-.27,1.69,1.69,0,0,1,.13-.31c2.22-3.86,4.6-6,7.06-6.38a1.53,1.53,0,0,1,.9.13,3.31,3.31,0,0,1,.58.35l.11.07a5.69,5.69,0,0,1,1.87,2.87,5.06,5.06,0,0,1,.15.81v0q0,.3,0,.57c0,.21,0,.42,0,.62v0a5.59,5.59,0,0,1-.11.59,1,1,0,0,0,.21.48l0,0,0,0,.22.22.15.15h0l.22.2,0,0a2.21,2.21,0,0,1,.38.43,2.25,2.25,0,0,1,.34,1.81,1.42,1.42,0,0,1-.07.22,2.51,2.51,0,0,1,.14,2,2.67,2.67,0,0,1-.34,1.32,2,2,0,0,1-.12.19v0a2.69,2.69,0,0,1-.08,1.05,2.5,2.5,0,0,1-.64,1.07,3,3,0,0,1-2.35.83h0a2.8,2.8,0,0,1-.47-.07c-.34-.06-.77-.16-1.22-.28l-.09,0h0a.64.64,0,0,0-.2,0h0l-.11.05a.43.43,0,0,0-.13.14c-.09.12-.17.26-.26.4s-.35.6-.51.91c-.25.49-.51,1-.76,1.62a1.91,1.91,0,0,0-.17,1,1.84,1.84,0,0,0,.26.83,7.71,7.71,0,0,1,.44.86A6.79,6.79,0,0,1,47.15,48a7.22,7.22,0,0,1,.08,2.93c-.06.51-.12,1.19-.16,2,0,.23,0,.46,0,.67,0,.79,0,1.41,0,1.64v.2A1.76,1.76,0,0,1,45.23,57.16Zm-1.35-1.75ZM40,42.46l.33.72c.23.5.47,1,.71,1.52s.35.72.52,1a20.78,20.78,0,0,0,2.7,4.11,4.08,4.08,0,0,0-.1-1.14,3.75,3.75,0,0,0-.41-1A5.14,5.14,0,0,1,43,45.5,5.26,5.26,0,0,1,43.44,43c.22-.51.45-1,.67-1.44a.59.59,0,0,1,0-.13l0-.14c0-.18,0-.38-.06-.61a10.42,10.42,0,0,0-1.32-4.61q-.3.67-.51,1.2a9.2,9.2,0,0,1-.69,2.81c-.1.24-.23.5-.37.76A8.73,8.73,0,0,1,40,42.46Zm8.4-1.34Zm-.26,0h0Zm0,0Zm2-2.15h0Zm.29-.56ZM48.57,38a3.22,3.22,0,0,1,.62.11l.85.2,0-.2a1.57,1.57,0,0,1,.53-1.42,1.84,1.84,0,0,1,0-.33,1.52,1.52,0,0,1-.62-1,1.55,1.55,0,0,1,.24-1.05l-.2-.2a1.57,1.57,0,0,1-.21-.24,4.05,4.05,0,0,1-.92-2.58,2,2,0,0,1,0-.42l0-.07c0-.11,0-.22.07-.33a2.44,2.44,0,0,0,0-.27,2.26,2.26,0,0,0,0-.25,3.09,3.09,0,0,0-.07-.35,2.45,2.45,0,0,0-.24-.58,2.86,2.86,0,0,0-.31-.42c-1.15.45-2.44,1.77-3.73,3.8a16.1,16.1,0,0,1,2.67,5.76A3.44,3.44,0,0,1,48.43,38Zm2-1.05Zm0,0h0v0Zm.34-.36h0Zm0,0Zm-1.83-7.91Zm0,0Zm0,0Zm0,0h0Zm0,0Zm0,0Zm0,0Zm0,0h0Zm-.27,0a1.24,1.24,0,0,0,.27,0A1.24,1.24,0,0,1,48.77,28.63Zm0,0Zm-.86-.49,0,0Zm0,0Zm2.33-2.05Zm0,0Z"/><path class="cls-8" d="M40.23,19.93H40l-.28,0-.18,0a.62.62,0,0,0-.18,0l-.22.05a1.55,1.55,0,0,0-.23.06l-.23.07a1.17,1.17,0,0,0-.24.09,1,1,0,0,0-.21.09,5.39,5.39,0,0,0-.86.44l-.22.13-.36.26-.25.19-.28.24-.28.24a.23.23,0,0,1-.07.07l-.1.1-.15.15h0l0,0-.05,0-.06,0-.08.06-.13.09-.43.32c-.43.31-1,.72-1.74,1.18l-.65.4a6.18,6.18,0,0,0-2.26,6.32c-1.39-.43-1.57-2.33-1.57-2.33l0-.43a16.54,16.54,0,0,0-.29-1.87c-.11-.51-.24-1-.4-1.52,0,0,0,0,0,0a1.62,1.62,0,0,1,1.06-2,4.52,4.52,0,0,0,2.38-1.85,1,1,0,0,1,.12-.17,4,4,0,0,1,3.4-1.27,5.27,5.27,0,0,1,.7,0c.25,0,.48,0,.71.09s.61.11.85.16a9.24,9.24,0,0,0,1.66.25A14.36,14.36,0,0,1,40.23,19.93Z"/><path class="cls-8" d="M30.19,32.25a1.47,1.47,0,0,1-.46-.07,4.25,4.25,0,0,1-2.66-3.66l0-.44a13.09,13.09,0,0,0-.26-1.69c-.1-.47-.22-.93-.36-1.39V25h0A3.18,3.18,0,0,1,28.47,21,2.92,2.92,0,0,0,30,19.84c.05-.07.12-.19.22-.31a5.36,5.36,0,0,1,4.65-1.86,7.94,7.94,0,0,1,.83,0c.26,0,.53.06.8.11s.6.1,1,.18a8.3,8.3,0,0,0,1.4.21,15.37,15.37,0,0,1,1.66.19,1.56,1.56,0,0,1,1.26,1.67,1.54,1.54,0,0,1-1.54,1.41H40.1l-.22,0h-.05l-.13,0h-.05l-.11,0-.08,0-.14,0h0l-.11,0,0,0-.1,0-.09,0h0l-.11,0a4.86,4.86,0,0,0-.63.33l0,0-.1.06,0,0-.28.2-.05,0-.14.11-.26.21L37,23l0,0,0,0,0,0-.07.06-.11.11-.12.11-.05,0-.1.08,0,0h0l-.06.05h0l-.19.14,0,0c-.11.09-.25.18-.4.29-.41.29-1,.73-1.8,1.22l-.64.4a4.68,4.68,0,0,0-1.58,4.75,1.56,1.56,0,0,1-.5,1.43A1.54,1.54,0,0,1,30.19,32.25Zm-.8-8.11c.1.33.2.67.28,1a7,7,0,0,1,1.94-2.08l0,0,.62-.39c.72-.46,1.3-.87,1.68-1.14l.35-.25.06,0,.06,0,0,0h0l.09-.07h0l.08-.06A.46.46,0,0,1,34.7,21a.92.92,0,0,1,.14-.14l0,0,0,0h-.07a2.72,2.72,0,0,0-2.15.66l0,.05A6.17,6.17,0,0,1,29.41,24a.06.06,0,0,0,0,.07S29.38,24.11,29.39,24.14Zm-2.95.94Zm-.07-.24Zm10-1.28-.06,0,.06,0Zm0,0h0Zm.13-.1h0l.06,0A.15.15,0,0,1,36.53,23.47Zm.19-.15Zm0,0h0Zm3-1.78h0Zm-7-.09Z"/><path class="cls-8" d="M42.45,28.93c-.15.26-.29.53-.43.81C42.16,29.46,42.3,29.19,42.45,28.93Z"/><path class="cls-8" d="M42,31.29a1.55,1.55,0,0,1-1.4-2.22c.15-.31.32-.62.49-.92A1.55,1.55,0,0,1,43.8,29.7c-.13.24-.26.48-.38.73A1.54,1.54,0,0,1,42,31.29Z"/><path class="cls-8" d="M46.87,25.2l-.32,0-.08,0-.1,0h0l-.08,0-.06,0a6.71,6.71,0,0,0-1.56.95l-.28.23-.22.21s0,0-.06.06-.17.16-.25.25-.13.14-.19.22-.23.26-.34.4l-.19.26-.2.27c-.08.13-.17.26-.25.4s-.13.21-.2.32c-.15.26-.29.53-.43.81,0,.1-.08.19-.13.29s-.23.51-.33.78-.1.27-.16.41-.09.26-.13.39-.12.34-.17.52-.07.24-.11.36l-.12.44-.12.44c0,.16-.07.31-.1.46s-.07.31-.1.46c-.16.77-.29,1.57-.39,2.39,0,.18,0,.37-.07.55a1.13,1.13,0,0,1-1.55.36,2.49,2.49,0,0,1-.75-.57,2.39,2.39,0,0,1-.59-1.59C37.22,30,39.79,26,45,23.54a1.12,1.12,0,0,1,.64-.11,1.14,1.14,0,0,1,1,.73A4.33,4.33,0,0,1,46.87,25.2Z"/><path class="cls-8" d="M39.19,39.3a3,3,0,0,1-1.3-.31,3.78,3.78,0,0,1-1.27-1,4,4,0,0,1-1-2.61c0-6.11,2.94-10.59,8.69-13.3a2.83,2.83,0,0,1,1.47-.25,2.72,2.72,0,0,1,2.24,1.71A6.05,6.05,0,0,1,48.4,25a1.54,1.54,0,0,1-1.49,1.78h-.1a5.24,5.24,0,0,0-1.21.74l-.2.17,0,0-.15.14,0,0,0,0-.18.2-.15.16,0,0c-.09.1-.17.21-.26.32v0c-.06.06-.1.13-.15.19l-.18.25-.22.34c-.05.09-.11.18-.16.28a6.17,6.17,0,0,0-.38.72s-.05.08-.07.13l-.05.11-.3.7c0,.13-.09.26-.14.38l-.12.36c-.06.15-.11.3-.16.47v0a1.18,1.18,0,0,0-.07.2l0,.13c0,.12-.07.25-.11.38s-.07.28-.11.42-.07.28-.1.43l-.09.42c-.15.73-.27,1.49-.37,2.28v0c0,.15,0,.31,0,.47v0a1.64,1.64,0,0,1-.28.73A2.63,2.63,0,0,1,39.19,39.3Zm1.62-10.59a11,11,0,0,0-2.06,6.73s0,0,0,.06c.08-.52.17-1,.27-1.52,0-.16.07-.32.1-.49l.12-.48.12-.48c0-.16.09-.32.13-.48l0-.12a2.76,2.76,0,0,1,.08-.27l.18-.56.15-.42c0-.15.11-.3.17-.44s.22-.55.36-.86h0l0-.1.1-.2Zm5.89-1.9h0Zm.1,0h0Zm0,0Zm0,0Zm-.3-1.5.3,1.5h0l-.32-1.5Zm.34,1.49h0Zm0,0Zm.17-.05h0Z"/><path class="cls-8" d="M45.61,23a10.5,10.5,0,0,0-9.36,5.18,10.78,10.78,0,0,0-.71,1.4,14.77,14.77,0,0,0-.7,2.16,17.56,17.56,0,0,0-.42,2.67,2.46,2.46,0,0,0,0,.28,1.52,1.52,0,0,0,.17.81A6.92,6.92,0,0,0,33.1,35L33,35a4.27,4.27,0,0,1-1.34-.54,1.43,1.43,0,0,1-.63-1.25c0-.09,0-.18,0-.26s0-.29,0-.43,0-.16,0-.24c0-.25.05-.49.08-.73a2,2,0,0,1,0-.24c0-.24.07-.48.11-.71l.06-.28,0-.08.06-.26a4.05,4.05,0,0,1,.12-.47c0-.09.05-.19.08-.28s.09-.27.13-.41,0-.1.05-.14l.12-.33c.05-.13.1-.26.16-.39s.11-.25.17-.37.24-.49.37-.71.27-.45.41-.67h0c.06-.1.13-.19.19-.28l.18-.24a7.6,7.6,0,0,1,.75-.85l.14-.15.13-.12.17-.16.18-.16.35-.27c.11-.09.22-.18.34-.26h0l.17-.11.17-.11.18-.11.18-.11c.2-.11.4-.22.61-.32l.25-.12.1,0,.29-.12.33-.12.35-.12.31-.1c.23-.06.45-.12.68-.16l.32-.07.38-.06.36-.05.35,0,.3,0a13.56,13.56,0,0,1,4,.36h0A1,1,0,0,1,45.61,23Z"/><path class="cls-8" d="M34.56,37.09a1.64,1.64,0,0,1-.68-.15,5,5,0,0,0-1.13-.4h-.07a5.38,5.38,0,0,1-1.82-.75,3,3,0,0,1-1.34-2.6V33s0-.08,0-.11a3.91,3.91,0,0,1,0-.49,2.45,2.45,0,0,1,0-.27c0-.23,0-.48.08-.77,0-.11,0-.21,0-.3,0-.26.08-.51.13-.75l.06-.32,0-.06v0l.06-.27v0c0-.16.08-.33.13-.51s.06-.21.1-.33.1-.31.14-.45a1.34,1.34,0,0,1,.07-.18c0-.12.08-.24.13-.36s.11-.28.17-.43.13-.28.2-.43.28-.56.42-.81.28-.47.46-.75l0,0c.07-.11.15-.21.21-.3l.2-.28a11.59,11.59,0,0,1,.86-1l.18-.18.16-.15.17-.16.22-.19,0,0,.4-.32.38-.28.08-.06.06,0,.1-.07.05,0,.14-.09.15-.1,0,0a1.18,1.18,0,0,1,.19-.11l0,0c.22-.13.45-.25.7-.37l.15-.07.1-.05.08,0h0l.09,0,.06,0,.25-.1c.13-.06.26-.1.37-.14l.41-.14.35-.1a7.19,7.19,0,0,1,.8-.2h0l.31-.06.43-.08.4-.05.42,0,.33,0a14.93,14.93,0,0,1,4.37.39l.08,0a2.56,2.56,0,0,1,1.87,1.85A1.56,1.56,0,0,1,46.84,24a1.53,1.53,0,0,1-1.22.6,9,9,0,0,0-8,4.41A10.71,10.71,0,0,0,37,30.22a12.45,12.45,0,0,0-.62,1.93A15.92,15.92,0,0,0,36,34.57a2.29,2.29,0,0,0,0,.25,1.56,1.56,0,0,1-.28,1.8A1.54,1.54,0,0,1,34.56,37.09Zm-1.94-3.88a2.3,2.3,0,0,0,.35.17,19,19,0,0,1,.36-2,16.05,16.05,0,0,1,.78-2.4,13.88,13.88,0,0,1,.8-1.59,12,12,0,0,1,2.49-3l-.39.21,0,0-.08.05-.07,0-.06,0-.06,0,0,0L36.5,25l-.1.07h0l-.25.18-.3.24-.14.12a1.85,1.85,0,0,0-.14.14l-.06.05,0,0,0,0-.09.08,0,0a7.16,7.16,0,0,0-.62.71l-.14.19-.16.22h0l0,.05c-.13.2-.24.37-.33.53s-.22.41-.32.63a2.92,2.92,0,0,0-.14.31h0c0,.11-.09.23-.13.34a1.86,1.86,0,0,0-.1.25l0,.1,0,0c0,.12-.08.24-.11.35a.14.14,0,0,1,0,.06c0,.06,0,.12,0,.19v0l-.11.41a2.25,2.25,0,0,1-.05.22v.07a1.89,1.89,0,0,0,0,.23v0c0,.2-.08.41-.11.63a.09.09,0,0,1,0,.05c0,.05,0,.09,0,.14v0c0,.26-.06.46-.07.65v0c0,.06,0,.13,0,.19v0c0,.12,0,.24,0,.36s0,.09,0,.14Zm-.07,0Z"/><path class="cls-9" d="M52,35.49a1.46,1.46,0,0,0-.23-.21s0,0,0,0l-.22-.12,0,0a.1.1,0,0,0,0,0,2.26,2.26,0,0,0,.35-.32l0-.06a.66.66,0,0,0,.11-.24.71.71,0,0,0-.11-.58.47.47,0,0,0-.13-.15l-.28-.26-.18-.18L51.11,33,51,32.88a2.49,2.49,0,0,1-.58-1.61h0l0-.09a5.17,5.17,0,0,0,.11-.54c0-.15,0-.3,0-.45s0-.28,0-.41a3.71,3.71,0,0,0-.11-.58,3.91,3.91,0,0,0-.41-1,3.61,3.61,0,0,0-.94-1.08h0a2.18,2.18,0,0,0-.36-.22h0c-2.39.36-4.47,3.05-6,5.63a7.55,7.55,0,0,1,.59.7A13.72,13.72,0,0,1,46,39.38a7.52,7.52,0,0,1,0,1.5c0,.14-.15.27-.23.4l-.1,0c0-.21-.06-.42-.07-.63a12.17,12.17,0,0,0-2.87-7.26,2.36,2.36,0,0,1-.23-.31,34.58,34.58,0,0,0-1.81,3.88h0a7.61,7.61,0,0,1-.59,2.55,4.92,4.92,0,0,1-.3.61A7.18,7.18,0,0,1,38.25,42l-.37.21c.29,0,.34.21.43.4.44.92.86,1.86,1.3,2.78.18.37.36.73.55,1.09a19.56,19.56,0,0,0,3.89,5.43c.27.25.55.46.83.69a1.29,1.29,0,0,1,.27.25,1.51,1.51,0,0,1,.06.38c-.12,0-.28,0-.37,0a12.36,12.36,0,0,1-1.24-.95,19,19,0,0,1-3.81-5.3c-.27-.51-.53-1-.78-1.57-.4-.85-.78-1.71-1.17-2.56-.08-.16,0-.4,0-.6l-.15.09a12.82,12.82,0,0,0-1.22.8l-.23.17-.26.2c.07.16.15.38.26.65s.31.77.51,1.25c1.28,3,3.84,8.09,6.89,9.83a3.11,3.11,0,0,0,1.43.41h.15a.2.2,0,0,0,.2-.2.91.91,0,0,0,0-.17c0-.37,0-1,.05-1.67l0-.7c0-.76.1-1.56.18-2.21a5.55,5.55,0,0,0-.06-2.3,5.18,5.18,0,0,0-.26-.82,4.14,4.14,0,0,0-.34-.66,3.4,3.4,0,0,1-.48-1.51,3.44,3.44,0,0,1,.3-1.72c.26-.6.53-1.17.8-1.69s.37-.7.56-1c.1-.16.2-.32.3-.46A2.18,2.18,0,0,1,47,40a2,2,0,0,1,.51-.26,2.07,2.07,0,0,1,.82-.12h0a2.66,2.66,0,0,1,.39.07c.46.12.85.21,1.1.26l.3,0a1.5,1.5,0,0,0,1.19-.38,1,1,0,0,0,.24-.4,1,1,0,0,0,0-.42l-.1-.77V37.9a.78.78,0,0,0,.41-.36,1.43,1.43,0,0,0,.13-.81A1,1,0,0,0,52,35.49Z"/><path class="cls-1" d="M40.23,19.93H40l-.28,0-.18,0a.62.62,0,0,0-.18,0l-.22.05a1.55,1.55,0,0,0-.23.06l-.23.07a1.17,1.17,0,0,0-.24.09,1,1,0,0,0-.21.09,5.39,5.39,0,0,0-.86.44l-.22.13-.36.26-.25.19-.28.24-.28.24a.23.23,0,0,1-.07.07l-.1.1-.15.15h0l0,0-.05,0-.06,0-.08.06-.13.09-.43.32c-.43.31-1,.72-1.74,1.18l-.65.4a6.18,6.18,0,0,0-2.26,6.32c-1.39-.43-1.57-2.33-1.57-2.33l0-.43a16.54,16.54,0,0,0-.29-1.87c-.11-.51-.24-1-.4-1.52,0,0,0,0,0,0a1.62,1.62,0,0,1,1.06-2,4.52,4.52,0,0,0,2.38-1.85,1,1,0,0,1,.12-.17,4,4,0,0,1,3.4-1.27,5.27,5.27,0,0,1,.7,0c.25,0,.48,0,.71.09s.61.11.85.16a9.24,9.24,0,0,0,1.66.25A14.36,14.36,0,0,1,40.23,19.93Z"/><path class="cls-10" d="M42.45,28.93c-.15.26-.29.53-.43.81C42.16,29.46,42.3,29.19,42.45,28.93Z"/><path class="cls-10" d="M46.87,25.2l-.32,0-.08,0-.1,0h0l-.08,0-.06,0a6.71,6.71,0,0,0-1.56.95l-.28.23-.22.21s0,0-.06.06-.17.16-.25.25-.13.14-.19.22-.23.26-.34.4l-.19.26-.2.27c-.08.13-.17.26-.25.4s-.13.21-.2.32c-.15.26-.29.53-.43.81,0,.1-.08.19-.13.29s-.23.51-.33.78-.1.27-.16.41-.09.26-.13.39-.12.34-.17.52-.07.24-.11.36l-.12.44-.12.44c0,.16-.07.31-.1.46s-.07.31-.1.46c-.16.77-.29,1.57-.39,2.39,0,.18,0,.37-.07.55a1.13,1.13,0,0,1-1.55.36,2.49,2.49,0,0,1-.75-.57,2.39,2.39,0,0,1-.59-1.59C37.22,30,39.79,26,45,23.54a1.12,1.12,0,0,1,.64-.11,1.14,1.14,0,0,1,1,.73A4.33,4.33,0,0,1,46.87,25.2Z"/><path class="cls-11" d="M45.61,23a10.5,10.5,0,0,0-9.36,5.18,10.78,10.78,0,0,0-.71,1.4,14.77,14.77,0,0,0-.7,2.16,17.56,17.56,0,0,0-.42,2.67,2.46,2.46,0,0,0,0,.28,1.52,1.52,0,0,0,.17.81A6.92,6.92,0,0,0,33.1,35L33,35a4.27,4.27,0,0,1-1.34-.54,1.43,1.43,0,0,1-.63-1.25c0-.09,0-.18,0-.26s0-.29,0-.43,0-.16,0-.24c0-.25.05-.49.08-.73a2,2,0,0,1,0-.24c0-.24.07-.48.11-.71l.06-.28,0-.08.06-.26a4.05,4.05,0,0,1,.12-.47c0-.09.05-.19.08-.28s.09-.27.13-.41,0-.1.05-.14l.12-.33c.05-.13.1-.26.16-.39s.11-.25.17-.37.24-.49.37-.71.27-.45.41-.67h0c.06-.1.13-.19.19-.28l.18-.24a7.6,7.6,0,0,1,.75-.85l.14-.15.13-.12.17-.16.18-.16.35-.27c.11-.09.22-.18.34-.26h0l.17-.11.17-.11.18-.11.18-.11c.2-.11.4-.22.61-.32l.25-.12.1,0,.29-.12.33-.12.35-.12.31-.1c.23-.06.45-.12.68-.16l.32-.07.38-.06.36-.05.35,0,.3,0a13.56,13.56,0,0,1,4,.36h0A1,1,0,0,1,45.61,23Z"/></svg>