<svg id="Layer_1" data-name="Layer 1" xmlns="http://www.w3.org/2000/svg" viewBox="0 0 163 70"><defs><style>.cls-1{fill:#1e196a;}.cls-2{font-size:10.22px;font-family:StretchProBasic, Stretch Pro;}.cls-2,.cls-3{fill:#ed1c24;}</style></defs><path class="cls-1" d="M67.67,28.19a1.85,1.85,0,0,1,.25.89,1.36,1.36,0,0,1-.15.63c-.39.8-1.38,1.34-3,1.63-1,.18-2.51.35-4.54.5l-.58,0c0,.07,0,.27,0,.59-.07.82-.1,1.45-.1,1.91,0,.2,0,.36,0,.48.11,1.06.18,2.4.21,4v.66c0,2.23-.19,3.41-.57,3.53,0,.06-.27.09-.76.09A6,6,0,0,1,56.49,43q-1.23-1.2-1.23-5.27c0-.83,0-1.74.12-2.74,0-.18,0-.36,0-.54a2.65,2.65,0,0,0-.48-1.79A2.6,2.6,0,0,0,53,32.19h-.26l-.44,0A4.73,4.73,0,0,1,50.85,32a2.34,2.34,0,0,1-1.44-1.47v-.09a1.26,1.26,0,0,1,.36-.91,4.23,4.23,0,0,1,3-.84,6.74,6.74,0,0,1,.84,0l.52,0a2.93,2.93,0,0,0,1.06-.2c-.11-1.29-.17-2.55-.17-3.8,0-1,0-1.91.1-2.85q.33-4.26,1.62-5.68a2,2,0,0,1,1.49-.7h.14a.82.82,0,0,1,.62.28c.39.42.58,1.54.58,3.36,0,1.07-.07,2.38-.2,3.92-.09,1-.14,1.68-.15,2s0,.81,0,1.37v1.74c0,.16.29.23.89.23h.42A25.74,25.74,0,0,0,63.93,28l.46-.12a8.42,8.42,0,0,1,1.89-.32A1.4,1.4,0,0,1,67.67,28.19Z"/><path class="cls-1" d="M79.47,38.85a13.49,13.49,0,0,1,1,3.94c0,1-.43,1.52-1.3,1.52a2.64,2.64,0,0,1-1.71-.69c-.76-.63-1.35-2-1.78-4.19-.13-.64-.22-1.1-.29-1.37a11.47,11.47,0,0,1-2.94,3.43,6,6,0,0,1-3.62,1.61,2.31,2.31,0,0,1-2-1.13A6.74,6.74,0,0,1,66,38.35a22.54,22.54,0,0,1,.94-5.91c.8-2.91,1.79-4.39,3-4.42h0a1.21,1.21,0,0,1,1,.42A2.66,2.66,0,0,1,71.23,30a24.6,24.6,0,0,1-.74,5,19.56,19.56,0,0,0-.57,3.29c0,.19,0,.3.07.34a.43.43,0,0,0,.2-.08,7.25,7.25,0,0,0,3-3.57,19.86,19.86,0,0,0,1-4,12,12,0,0,1,.49-2.22,1.26,1.26,0,0,1,1.16-.91c1,0,1.72.71,2.13,2.11A19.65,19.65,0,0,1,78.44,34c.06,1,.12,1.68.18,2A20.44,20.44,0,0,0,79.47,38.85Z"/><path class="cls-1" d="M104,45.14a.76.76,0,0,1,0,.21q-.25,1.15-4.55,2.67c-1.27.73-2.3,1.28-3.09,1.66a8.9,8.9,0,0,0-2.75,2.53,6.62,6.62,0,0,1-1.1,1.44,2.28,2.28,0,0,1-1,.44,4.9,4.9,0,0,1-.73-.11,1.84,1.84,0,0,1-1.58-.91,4.56,4.56,0,0,1-.23-1.75V51c0-.57,0-1.12,0-1.67a96.6,96.6,0,0,1,.62-11.61Q86,41,83.14,41a2.55,2.55,0,0,1-1.94-.76,4.84,4.84,0,0,1-1-3.39c0-.18,0-.37,0-.57a8.64,8.64,0,0,1,3-6.26,9.07,9.07,0,0,1,6.43-2.88h.24a7.08,7.08,0,0,1,2.47.65,7.05,7.05,0,0,1,1.86,1.76,2.13,2.13,0,0,1,.36,1.35,9.25,9.25,0,0,1-.44,2.52,14.25,14.25,0,0,0-.35,1.46,67.85,67.85,0,0,0-.54,9.17c0,.7,0,1.42,0,2.16a22.89,22.89,0,0,1,8.71-2,7.43,7.43,0,0,1,1.76.21A1,1,0,0,1,104,45.14ZM90.62,31A3,3,0,0,0,89,30.47q-2.06,0-3.78,2.5a7.28,7.28,0,0,0-.73,1.89,5.82,5.82,0,0,0-.23,1.41,1.19,1.19,0,0,0,.29.89.42.42,0,0,0,.22.05c.66,0,1.68-.69,3.07-2.07A11.44,11.44,0,0,0,90.62,31Z"/><path class="cls-1" d="M98.16,27.49c.67,0,1,.29,1,.86a45.78,45.78,0,0,1,.66,8.12c0,.35,0,.71,0,1.08l-.09,4.39c0,.23-.3.49-.89.78a3.44,3.44,0,0,1-1.39.42A.68.68,0,0,1,97,43a4.31,4.31,0,0,1-1.38-3.08,8.72,8.72,0,0,1-.05-1c0-.8.06-1.84.18-3.13,0-.52.08-.91.1-1.17.07-1,.1-1.94.1-3,0-.34,0-.69,0-1s0-.46-.08-.76a2.17,2.17,0,0,1,0-.26,2.5,2.5,0,0,1,.51-1.43A2,2,0,0,1,98.16,27.49Z"/><path class="cls-1" d="M108.5,27.59a4.52,4.52,0,0,1,3.71,1.75A7.37,7.37,0,0,1,113.59,34a10.76,10.76,0,0,1-1.78,6.13A5.95,5.95,0,0,1,105.42,43a4.78,4.78,0,0,1-3.58-3.11,10.49,10.49,0,0,1-.74-4.1c0-.39,0-.79,0-1.2a7.59,7.59,0,0,1,2.17-5.09,6.7,6.7,0,0,1,4.93-1.92Zm-2.79,5.89a4.45,4.45,0,0,0-.48,2.1v.2a4.46,4.46,0,0,0,.58,2.25,1.44,1.44,0,0,0,1.23.86,2.45,2.45,0,0,0,1.71-1.08,4.82,4.82,0,0,0,1-2.84c0-.16,0-.31,0-.46a4.61,4.61,0,0,0-.67-2.52,1.19,1.19,0,0,0-1-.62,2.93,2.93,0,0,0-2.39,2.11Z"/><text class="cls-2" transform="translate(52.77 54.09)">HUB</text><path class="cls-3" d="M103.06,25.05a.8.8,0,0,1-.94.27c-.64-.2-.93-.95-.77-2,.43-2.77-.06-6.34-1.82-7.8a4.64,4.64,0,0,0-4.51-.9A4.5,4.5,0,0,0,92.1,18c-.54,2.47-.13,4.29,1.27,5.76a3,3,0,0,0,3.39.9,3.13,3.13,0,0,0,2.31-2.82,9.78,9.78,0,0,0-.66-3.35,1.76,1.76,0,0,0-2.28-1.05c-.59.23-1.7.93-1.73,1.45a6.65,6.65,0,0,0,.41,2.44.67.67,0,0,0,.22.28h0a.57.57,0,0,0,.38.11,1.26,1.26,0,0,0,.59-.15l0,0a1.72,1.72,0,0,0,.36-.74s.08-.3-.7-.2h0c-.13,0-.25-.23-.36-.67v-.05a1.28,1.28,0,0,1,.38-1,1.12,1.12,0,0,1,1.2-.14h0l.1,0,.08,0h0a1.67,1.67,0,0,1,.81,2.05,3.13,3.13,0,0,1-2.28,2.39,2.1,2.1,0,0,1-2.37-1.54,7.34,7.34,0,0,1-.36-2.57,3.67,3.67,0,0,1,5.76-2.53,4.77,4.77,0,0,1,1.69,3.58,6.51,6.51,0,0,1-1.59,5,4.39,4.39,0,0,1-5.62.32,6.92,6.92,0,0,1-2.66-5.93v0a11.09,11.09,0,0,1,.31-2l0-.15a6.37,6.37,0,0,1,.69-1.52,5.58,5.58,0,0,1,1.4-1.57A5.68,5.68,0,0,1,95.85,13l.62,0c2.66,0,4.48.82,5.7,2.56C103.6,17.55,104.09,22.9,103.06,25.05Z"/><path class="cls-3" d="M97.09,18.82l-.08,0h0Z"/></svg>