<svg id="Layer_1" data-name="Layer 1" xmlns="http://www.w3.org/2000/svg" viewBox="0 0 163 70"><defs><style>.cls-1{fill:#fff;}.cls-2{font-size:12.31px;font-family:StretchProBasic, Stretch Pro;}.cls-2,.cls-3{fill:#ed1c24;}</style></defs><path class="cls-1" d="M64.86,26.8a2.43,2.43,0,0,1,.29,1.08,1.59,1.59,0,0,1-.17.75c-.47,1-1.67,1.62-3.6,2q-1.8.31-5.47.6l-.7.05c0,.08,0,.32-.06.7Q55,33.43,55,34.26c0,.23,0,.42,0,.58.13,1.27.21,2.88.24,4.81v.79c0,2.69-.22,4.1-.68,4.26,0,.07-.33.1-.91.1a6.76,6.76,0,0,1-2.31-.18q-1.47-1.44-1.47-6.34c0-1,0-2.09.14-3.29,0-.22,0-.44,0-.65a3.21,3.21,0,0,0-.57-2.16,3.16,3.16,0,0,0-2.25-.56h-.32l-.53,0a5.85,5.85,0,0,1-1.79-.21,2.85,2.85,0,0,1-1.74-1.78v-.1a1.48,1.48,0,0,1,.44-1.09c.65-.68,1.87-1,3.65-1a7.54,7.54,0,0,1,1,0l.62,0a3.5,3.5,0,0,0,1.28-.24c-.14-1.55-.21-3.07-.21-4.57,0-1.16,0-2.3.12-3.43q.41-5.13,2-6.83a2.34,2.34,0,0,1,1.8-.85h.17a1,1,0,0,1,.74.34c.47.5.7,1.85.7,4,0,1.29-.08,2.86-.24,4.73-.11,1.21-.17,2-.18,2.39s0,1,0,1.65v2.09c0,.19.36.28,1.08.28l.51,0a30,30,0,0,0,4.06-.56l.54-.14A9.9,9.9,0,0,1,63.19,26,1.71,1.71,0,0,1,64.86,26.8Z"/><path class="cls-1" d="M79.05,39.63a16,16,0,0,1,1.16,4.75q0,1.83-1.56,1.83a3.18,3.18,0,0,1-2.06-.83c-.91-.76-1.63-2.44-2.14-5-.15-.78-.27-1.33-.35-1.66a14,14,0,0,1-3.54,4.13,7.25,7.25,0,0,1-4.35,1.94,2.78,2.78,0,0,1-2.47-1.36A8.18,8.18,0,0,1,62.81,39,26.73,26.73,0,0,1,64,31.92q1.44-5.25,3.55-5.33h0a1.47,1.47,0,0,1,1.2.51A3.2,3.2,0,0,1,69.14,29a29,29,0,0,1-.9,6,24.17,24.17,0,0,0-.68,4c0,.22,0,.36.09.4a.55.55,0,0,0,.24-.09A8.71,8.71,0,0,0,71.46,35a22.82,22.82,0,0,0,1.18-4.8,15.12,15.12,0,0,1,.59-2.67,1.49,1.49,0,0,1,1.39-1.09c1.22,0,2.08.84,2.57,2.53a24.21,24.21,0,0,1,.63,4.9q.11,1.81.21,2.43A24.23,24.23,0,0,0,79.05,39.63Z"/><path class="cls-1" d="M108.54,47.21a.67.67,0,0,1,0,.24c-.21.93-2,2-5.48,3.22-1.52.88-2.76,1.55-3.72,2a10.79,10.79,0,0,0-3.31,3,8.57,8.57,0,0,1-1.32,1.74,2.8,2.8,0,0,1-1.23.53,5.73,5.73,0,0,1-.88-.14,2.19,2.19,0,0,1-1.89-1.09,5.23,5.23,0,0,1-.29-2.11v-.35c0-.68,0-1.35,0-2a114.7,114.7,0,0,1,.75-14q-4.16,3.95-7.64,4a3.09,3.09,0,0,1-2.34-.91,5.82,5.82,0,0,1-1.2-4.08c0-.22,0-.45,0-.69a10.39,10.39,0,0,1,3.55-7.54,11,11,0,0,1,7.74-3.46h.29a8.82,8.82,0,0,1,3,.77,8.81,8.81,0,0,1,2.24,2.13,2.55,2.55,0,0,1,.44,1.62,11.61,11.61,0,0,1-.53,3,12.89,12.89,0,0,0-.42,1.76,80.32,80.32,0,0,0-.65,11c0,.85,0,1.71,0,2.6a27.56,27.56,0,0,1,10.5-2.37,8.74,8.74,0,0,1,2.1.25A1.18,1.18,0,0,1,108.54,47.21Zm-16.06-17a3.53,3.53,0,0,0-2-.65q-2.48,0-4.55,3A8.52,8.52,0,0,0,85,34.84a6.47,6.47,0,0,0-.28,1.68,1.43,1.43,0,0,0,.35,1.08.48.48,0,0,0,.27.07c.79,0,2-.84,3.69-2.5A13.79,13.79,0,0,0,92.48,30.2Z"/><path class="cls-1" d="M101.55,26c.81,0,1.21.35,1.21,1a55.06,55.06,0,0,1,.79,9.77c0,.42,0,.85,0,1.3l-.11,5.29c0,.27-.36.58-1.07.93a4.08,4.08,0,0,1-1.67.51.8.8,0,0,1-.53-.16,5.25,5.25,0,0,1-1.67-3.71c0-.32,0-.71,0-1.16,0-1,.07-2.21.21-3.76.06-.63.1-1.1.12-1.4.08-1.15.13-2.34.13-3.57,0-.41,0-.83,0-1.25a9,9,0,0,0-.09-.91c0-.11,0-.21,0-.32a3,3,0,0,1,.62-1.72A2.44,2.44,0,0,1,101.55,26Z"/><path class="cls-1" d="M114,26.08a5.41,5.41,0,0,1,4.46,2.11,8.87,8.87,0,0,1,1.67,5.64A13,13,0,0,1,118,41.22a7.15,7.15,0,0,1-7.7,3.42A5.74,5.74,0,0,1,106,40.9a12.88,12.88,0,0,1-.89-4.94c0-.47,0-1,0-1.44a9.15,9.15,0,0,1,2.62-6.13,8,8,0,0,1,5.92-2.31Zm-3.36,7.09a5.3,5.3,0,0,0-.58,2.53v.24a5.41,5.41,0,0,0,.7,2.71,1.77,1.77,0,0,0,1.48,1,3,3,0,0,0,2.06-1.3A5.76,5.76,0,0,0,115.56,35c0-.19,0-.37,0-.55a5.59,5.59,0,0,0-.81-3,1.43,1.43,0,0,0-1.25-.73,3.49,3.49,0,0,0-2.88,2.53Z"/><text class="cls-2" transform="translate(46.91 57.98)">HUB</text><path class="cls-3" d="M107.45,23a1,1,0,0,1-1.13.33c-.78-.24-1.12-1.14-.92-2.41.51-3.34-.07-7.63-2.2-9.39a5.62,5.62,0,0,0-5.42-1.09,5.43,5.43,0,0,0-3.52,4.11c-.65,3-.16,5.16,1.53,6.92a3.62,3.62,0,0,0,4.07,1.09,3.76,3.76,0,0,0,2.79-3.4,11.78,11.78,0,0,0-.8-4,2.12,2.12,0,0,0-2.74-1.27c-.71.28-2,1.12-2.08,1.76a7.79,7.79,0,0,0,.5,2.93.68.68,0,0,0,.26.34h0a.66.66,0,0,0,.45.13,1.62,1.62,0,0,0,.71-.18l0,0a2.06,2.06,0,0,0,.43-.91s.11-.35-.84-.23h0c-.15,0-.3-.28-.43-.8v-.06a1.54,1.54,0,0,1,.47-1.21,1.33,1.33,0,0,1,1.44-.17h0l.11,0,.11,0h0a2,2,0,0,1,1,2.47,3.74,3.74,0,0,1-2.74,2.87A2.55,2.55,0,0,1,95.65,19a8.94,8.94,0,0,1-.43-3.1,4.42,4.42,0,0,1,6.93-3.05,5.74,5.74,0,0,1,2,4.32,7.88,7.88,0,0,1-1.91,6,5.29,5.29,0,0,1-6.77.38,8.39,8.39,0,0,1-3.21-7.14v-.05a13.9,13.9,0,0,1,.38-2.4l0-.19A8.2,8.2,0,0,1,93.56,12a6.67,6.67,0,0,1,1.69-1.89,6.85,6.85,0,0,1,3.53-1.59l.74,0c3.2,0,5.4,1,6.86,3.08C108.1,14,108.69,20.43,107.45,23Z"/><path class="cls-3" d="M100.27,15.53l-.11,0h0Z"/></svg>